<svg xmlns="http://www.w3.org/2000/svg" viewBox="0 0 383.97 384"><defs><style>.cls-1{fill:#11c2a1;}.cls-2{fill:#fff;}</style></defs><title>check</title><g id="圖層_2" data-name="圖層 2"><g id="BACKGROUND"><path class="cls-1" d="M381.87,164c-10-61-41.71-107.26-94.84-138.69C262.61,10.85,236,2.94,207.73.68A4.83,4.83,0,0,1,206.22,0H177c-4.34.7-8.68,1.43-13,2.09C83.84,14.26,19.44,73.71,4.21,153-10.52,229.65,13.59,293.68,74,343.22c28.9,23.69,62.81,36.24,100,40a9.7,9.7,0,0,1,2.25.78h30c4.59-.7,9.18-1.44,13.77-2.1,79.93-11.37,145.12-73.54,160.33-153,1.26-6.6,1.93-13.32,2.92-20A9.49,9.49,0,0,1,384,207V177Zm-65-13Q256,208.11,195,265c-14.52,13.56-29.16,27-44.81,41.44a14.64,14.64,0,0,0-1.78-3.19q-42.82-45.95-85.73-91.81c-7.39-7.91-9.82-17.07-6-27.29,3.59-9.76,11-15.33,21.28-16.5,9-1,16.3,2.45,22.38,9q25,26.91,50.15,53.72c.94,1,1.89,2,3,3.14,21.19-19.79,42-39.26,62.84-58.69q32.64-30.42,65.34-60.78c10.67-9.88,26.59-9.41,36.36.93A25.4,25.4,0,0,1,316.85,151Z"/><path class="cls-2" d="M153.41,233.47c21.19-19.8,42-39.26,62.84-58.69q32.64-30.42,65.34-60.78c10.67-9.89,26.59-9.41,36.36.93a25.39,25.39,0,0,1-1.1,36.06Q256,208.11,195,265c-14.52,13.55-29.16,27-44.8,41.44a14.91,14.91,0,0,0-1.78-3.19q-42.83-45.94-85.73-91.81c-7.39-7.91-9.82-17.06-6.05-27.29,3.59-9.77,11-15.33,21.29-16.5,9-1,16.3,2.45,22.38,9q25,26.91,50.15,53.72C151.35,231.33,152.31,232.32,153.41,233.47Z"/></g></g></svg>