<?xml version="1.0" encoding="utf-8"?>
<!-- Generator: Adobe Illustrator 21.0.0, SVG Export Plug-In . SVG Version: 6.00 Build 0)  -->
<svg version="1.1" id="圖層_1" xmlns="http://www.w3.org/2000/svg" xmlns:xlink="http://www.w3.org/1999/xlink" x="0px" y="0px"
	 viewBox="0 0 336 335.7" style="enable-background:new 0 0 336 335.7;" xml:space="preserve">
<style type="text/css">
	.st0{fill:#F96466;}
</style>
<title>shine</title>
<g id="圖層_2">
	<g id="BACKGROUND">
		<path class="st0" d="M-747.6,48.1c-4.6-0.3-6.3-2.2-7.6-4.9c-9.2-18.4-18.9-36.6-27.4-55.3c-4.5-9.8-10.8-16-20.5-20.5
			c-18.6-8.4-36.7-18.1-55-27.2c-2.8-1.4-5-3-4.9-6.3c0.1-3.2,2.3-4.7,4.9-6c21.5-10.7,42.8-21.5,64.3-32.1c2.9-1.4,5.2-3.7,6.6-6.7
			c10.4-21.1,21-42.2,31.5-63.3c1.4-2.8,2.9-5.4,6.5-5.5c3.7-0.1,5.4,2.5,6.8,5.5c10.7,21.6,21.5,43.1,32.4,64.6
			c1,1.9,2.6,3.5,4.5,4.5c21.3,10.8,42.8,21.5,64.2,32.2c1.3,0.6,2.5,1.2,3.6,1.9c2.7,1.8,3.5,5.4,1.7,8.1c-0.4,0.7-1,1.3-1.7,1.7
			c-1.2,0.7-2.4,1.4-3.6,1.9c-21.4,10.7-42.8,21.4-64.2,32.2c-1.9,1-3.5,2.6-4.5,4.6c-11.1,21.8-22,43.7-33,65.5
			C-744.2,45.4-746.5,46.9-747.6,48.1z"/>
		<path class="st0" d="M-527,55.5c-1.2,1.1-2.7,3.4-4.9,4.5c-13.9,7.1-27.9,14-41.8,21.1c-1.8,1-3.3,2.5-4.3,4.3
			c-7.1,13.8-14,27.6-20.8,41.5c-1.3,2.7-2.9,5.1-6.3,5.1s-4.9-2.3-6.3-5.1c-6.9-13.9-13.8-27.7-20.8-41.5c-1-1.8-2.5-3.3-4.3-4.3
			c-13.8-7.1-27.6-14-41.5-20.8c-2.7-1.4-5.1-2.9-5.1-6.3s2.3-4.9,5.1-6.3c13.9-6.9,27.7-13.8,41.5-20.8c1.8-1,3.3-2.5,4.3-4.3
			c7-13.7,13.8-27.4,20.6-41.2c1.3-2.7,3-5,6.3-5.1c3.5-0.1,5.2,2.3,6.7,5.1c6.8,13.6,13.6,27.3,20.5,40.8c1.1,2,2.8,3.7,4.8,4.7
			c13.8,7.1,27.6,14,41.5,20.9C-529.2,49.2-527.2,50.9-527,55.5z"/>
		<path class="st0" d="M-810.7,156c-1-1-3.1-2.4-4.2-4.4c-4.6-8.7-8.8-17.6-13.4-26.4c-0.9-1.7-2.3-3.1-4-4
			c-8.6-4.5-17.4-8.8-26.1-13.1c-2.7-1.4-4.7-3-4.7-6.2s2.2-4.8,4.8-6c8.7-4.3,17.5-8.6,26.1-13.1c1.6-0.9,2.9-2.2,3.8-3.8
			c4.3-8.2,8.4-16.4,12.5-24.7c1.5-3,3-5.9,6.9-5.9s5.3,3.1,6.8,6.1c4,8.1,7.9,16.1,12.1,24.1c1.1,1.9,2.6,3.5,4.5,4.5
			c8.4,4.4,16.9,8.6,25.4,12.8c2.7,1.4,5,3,5,6.4c0,3.2-2.2,4.8-4.8,6.1c-8.8,4.3-17.5,8.6-26.2,13.1c-1.6,0.9-2.9,2.2-3.8,3.8
			c-4.5,8.8-8.9,17.6-13.3,26.4C-804.4,154.2-806.2,156-810.7,156z"/>
	</g>
</g>
<path class="st0" d="M182.6,24.6l10.9,35.9c10.2,33.6,30.4,60.3,55.9,73.7l27.3,14.3c13.2,6.9,13.2,31.6,0,38.6l-27.3,14.3
	c-25.5,13.4-45.8,40-55.9,73.7L182.6,311c-5.3,17.4-24,17.4-29.3,0l-10.9-35.9c-10.2-33.6-30.4-60.3-55.9-73.7l-27.3-14.3
	c-13.2-6.9-13.2-31.6,0-38.6l27.3-14.3c25.5-13.4,45.8-40,55.9-73.7l10.9-35.9C158.6,7.2,177.4,7.2,182.6,24.6z"/>
</svg>
