<svg id="圖層_1" data-name="圖層 1" xmlns="http://www.w3.org/2000/svg" viewBox="0 0 512 512"><defs><style>.cls-1{fill:#fff;}</style></defs><title>wechat</title><path class="cls-1" d="M33.66,197c1.28-7.09,2.15-14.28,3.92-21.25,9.22-36.23,30.69-63.74,61.55-84C159.3,52.13,241.25,55.27,298,99.12c22,17,38.27,38.39,47.61,64.79.29.82.57,1.64.79,2.47a7.32,7.32,0,0,1,.12,1.28c-9.11.51-18.18.6-27.16,1.58-62.86,6.84-119.25,48.33-137.67,108.58a136.46,136.46,0,0,0-3.33,66.88q.25,1.28.41,2.57c.05.42,0,.86,0,2.37-8-1.27-15.88-1.92-23.42-3.95-5.74-1.55-10.07-.58-14.88,2.57-10.28,6.72-20.93,12.86-31.36,19.34-5.3,3.29-10.61,3.87-15.8.14s-6.11-9.15-4.69-15.12c2.24-9.41,4.31-18.87,6.78-28.22.81-3.07,0-4.56-2.46-6.34-27.57-20.11-46.67-46.21-55.27-79.49-1.76-6.81-2.69-13.83-4-20.76Q33.66,207.37,33.66,197Zm94.56-36.3a12.86,12.86,0,0,0,13,12.86,13,13,0,1,0-.2-26A13,13,0,0,0,128.23,160.65Zm111.34-.13a12.93,12.93,0,0,0-12.93-13,13,13,0,1,0,.06,26A12.85,12.85,0,0,0,239.57,160.52Z"/><path class="cls-1" d="M346.88,194.06c37.21.81,75.46,15.79,104.12,50.39,41.13,49.63,35.18,118-13.35,161.09-3.93,3.49-5.42,6.28-3.13,11.24,1.86,4,2.67,8.54,4.11,12.77,1.89,5.55,1.37,10.62-3,14.79s-9.45,4.47-14.91,2.38c-9.58-3.67-19.13-7.42-28.81-10.78a14.1,14.1,0,0,0-7.83-.31c-49.3,13.23-95.2,6.6-135.76-25.19-33.15-26-49.65-60.57-46-103.16C205,275.83,219.77,250,243.4,229.48,270.38,206,303.26,194.2,346.88,194.06Zm34.68,103.7A13,13,0,0,0,394.76,285a13.27,13.27,0,0,0-12.86-13.2,13.07,13.07,0,0,0-13.1,12.86A12.82,12.82,0,0,0,381.56,297.76Zm-90.17,0a13,13,0,0,0,13.1-12.83,13,13,0,1,0-26-.15A12.85,12.85,0,0,0,291.38,297.76Z"/></svg>