<?xml version="1.0" encoding="utf-8"?>
<!-- Generator: Adobe Illustrator 21.0.0, SVG Export Plug-In . SVG Version: 6.00 Build 0)  -->
<svg version="1.1" id="圖層_1" xmlns="http://www.w3.org/2000/svg" xmlns:xlink="http://www.w3.org/1999/xlink" x="0px" y="0px"
	 viewBox="0 0 380.3 380.3" style="enable-background:new 0 0 380.3 380.3;" xml:space="preserve">
<style type="text/css">
	.st0{opacity:0.3;}
	.st1{fill:#F27F68;}
</style>
<title>astro1_3</title>
<g id="圖層_2">
	<g id="Objects">
		<g class="st0">
			<path class="st1" d="M162.5,173.7c3.9,0,7.8-0.1,11.6,0c3,0.1,4.6-1.2,5.5-4c2.3-7.4,4.6-14.8,7.2-22c0.5-1.4,2.1-2.4,3.2-3.6
				c1.2,1.2,3,2.2,3.5,3.6c2.6,7.2,4.9,14.4,7.1,21.7c1,3.1,2.7,4.4,6,4.3c7.6-0.2,15.3-0.2,22.9,0.1c1.5,0,3,1.5,4.5,2.3
				c-0.8,1.4-1.3,3.2-2.5,4.1c-6,4.6-12.2,9.1-18.5,13.5c-2.7,1.9-3.3,4-2.2,7.1c2.4,7.2,4.8,14.4,7,21.7c0.4,1.4-0.3,3.2-0.5,4.8
				c-1.7-0.3-3.7,0-5-0.9c-6.3-4.3-12.4-8.8-18.5-13.4c-2.6-2-4.8-1.9-7.4,0c-6.1,4.6-12.2,9.1-18.5,13.4c-1.2,0.8-3.1,0.7-4.7,1
				c-0.3-1.7-1.1-3.5-0.7-5c2.1-7.3,4.5-14.5,7-21.7c1-3.1,0.4-5.2-2.3-7.1c-6.2-4.4-12.4-8.8-18.4-13.5c-1.2-0.9-1.6-2.7-2.4-4.1
				c1.5-0.8,3-2.1,4.5-2.3C154.7,173.5,158.6,173.7,162.5,173.7z"/>
			<path class="st1" d="M193.2,56.1c0,16.7,0,33.5,0,50.2c0,1.1,0.3,2.4-0.2,3.3c-0.6,1-1.9,2.3-2.8,2.3s-2.3-1.2-2.9-2.3
				c-0.5-0.9-0.2-2.2-0.2-3.3c0-33.6,0-67.2,0-100.8c0-1-0.3-2.2,0.1-3c0.7-1.1,1.9-2.6,2.9-2.6s2.2,1.5,2.9,2.6
				c0.4,0.7,0.1,2,0.1,2.9C193.2,22.4,193.2,39.3,193.2,56.1z"/>
			<path class="st1" d="M324.6,187.1h50.2c1,0,2.2-0.3,2.9,0.1c1.1,0.7,2.4,1.9,2.5,3c0.1,0.8-1.3,2.1-2.4,2.8
				c-0.7,0.4-2,0.1-2.9,0.1H273.8c-0.8,0-1.7,0.3-2.2-0.1c-1.2-0.9-2.4-2-3.4-3.1c1-1,2.1-2,3.3-2.8c0.6-0.4,1.7-0.1,2.6-0.1
				L324.6,187.1z"/>
			<path class="st1" d="M193.2,324.2c0,16.9,0,33.7,0,50.6c0,1,0.3,2.2-0.1,2.9c-0.7,1.1-2,2.6-3,2.5s-2.1-1.6-2.9-2.7
				c-0.4-0.6-0.1-1.7-0.1-2.6c0-33.8,0-67.7,0-101.5c0-0.9-0.3-2,0.1-2.6c0.8-1.1,2-2.6,3-2.5s2.2,1.5,2.9,2.7c0.4,0.7,0.1,2,0.1,3
				C193.2,290.7,193.2,307.5,193.2,324.2z"/>
			<path class="st1" d="M56.3,187.1h50.2c1.1,0,2.4-0.3,3.3,0.2s2.2,1.7,2.1,2.6c-0.3,1.2-1,2.3-2.1,3c-0.8,0.5-2.2,0.2-3.3,0.2H5.4
				c-1,0-2.2,0.3-2.9-0.1c-1.1-0.7-2.4-1.9-2.5-3c-0.1-0.8,1.4-2.1,2.4-2.7c0.8-0.4,2-0.1,3-0.1L56.3,187.1z"/>
			<path class="st1" d="M135.9,132.1c0.1,2.8-2.5,4.4-4.5,3.3c-0.9-0.6-1.8-1.4-2.5-2.2C105,109.3,81,85.3,57.1,61.4
				c-0.7-0.7-1.7-1.4-1.9-2.2c-0.3-1-0.3-2.7,0.3-3.3c1.1-0.7,2.3-1,3.6-0.7c0.8,0.1,1.5,1.2,2.2,1.9c24,24,48,48,72.1,72.1
				C134.3,130,135.1,131.1,135.9,132.1z"/>
			<path class="st1" d="M248.1,135.9c-2.8,0-4.4-2.3-3.4-4.2c0.5-0.9,1.1-1.6,1.9-2.3c24.1-24.1,48.2-48.3,72.4-72.4
				c0.6-0.6,1.2-1.6,1.9-1.7c1.2-0.2,3.1-0.4,3.6,0.3c0.7,0.9,0.7,2.6,0.4,3.9c-0.2,0.8-1.3,1.5-2,2.2
				c-23.8,23.9-47.7,47.7-71.6,71.5C250.3,134.2,249.3,135.1,248.1,135.9z"/>
			<path class="st1" d="M247.4,243.9c1.1,0.7,2.2,1.5,3.2,2.3c24.4,24.4,48.8,48.7,73.2,73.1c1.6,1.6,3,3.3,0.9,5.4
				c-2,1.9-3.6,0.6-5.1-1c-24.5-24.5-48.9-49-73.3-73.5c-0.9-1.2-1.4-2.7-1.3-4.2C244.9,245.4,246.4,244.8,247.4,243.9z"/>
			<path class="st1" d="M136.3,247.5c-0.7,1-1.4,2-2.2,2.9c-24.4,24.5-48.9,48.9-73.4,73.4c-1.5,1.5-3.2,2.8-5.1,0.9
				c-2.1-2.1-0.7-3.8,0.9-5.4c24.4-24.4,48.8-48.7,73.2-73.1c1.1-1,2.6-1.5,4.1-1.5C134.7,244.8,135.5,246.4,136.3,247.5z"/>
			<path class="st1" d="M222.2,118.2c-3.4,0.1-4.7-2-3.6-4.7c2.7-6.7,5.5-13.4,8.3-20l19.3-46.6c0.4-0.9,0.5-2.2,1.2-2.7
				c1.1-0.8,2.8-1.7,3.7-1.3s1.8,2.3,1.7,3.5c-0.1,1.7-1.2,3.2-1.9,4.8c-8.7,21.1-17.5,42.1-26.2,63.2
				C224.1,115.8,223.2,117,222.2,118.2z"/>
			<path class="st1" d="M118.2,222.3c-1.1,0.9-2.2,1.7-3.5,2.3c-12.5,5.3-25.1,10.4-37.6,15.6c-9.7,4-19.3,8.1-29,11.9
				c-1.4,0.6-3,0.6-4.4,0c-2.3-1.4-1.3-4.1,1.9-5.5c10.2-4.3,20.4-8.5,30.7-12.8c12.2-5.1,24.4-10.1,36.6-15.2
				C116.1,217.5,118.3,218.6,118.2,222.3z"/>
			<path class="st1" d="M45.4,127c1.3,0.5,2.2,0.8,3.2,1.1l65.6,27.2c0.9,0.4,2.2,0.6,2.6,1.3c0.7,1.1,1.4,2.7,1,3.8
				c-0.2,0.8-2.1,1.3-3.3,1.6c-0.6,0.1-1.4-0.4-2.1-0.7c-22.2-9.2-44.4-18.4-66.6-27.6c-3.3-1.4-4.2-3.3-2.6-5.2
				C43.8,127.9,44.5,127.4,45.4,127z"/>
			<path class="st1" d="M162.4,115.5c-0.7,0.8-1.3,2.1-2.2,2.4c-1.2,0.2-2.4-0.1-3.3-0.8c-0.7-0.5-1-1.7-1.4-2.6
				c-9.2-22.1-18.3-44.2-27.5-66.3c-0.1-0.3-0.4-0.7-0.4-1c0.4-1.5,0.4-3.6,1.4-4.3c2-1.4,3.4,0.1,4.3,2l8.3,20l19.4,46.9
				C161.5,113,161.9,114,162.4,115.5z"/>
			<path class="st1" d="M264.7,162.4c-0.8-0.7-2.1-1.3-2.4-2.3c-0.2-1.2,0.2-2.4,0.9-3.3c0.5-0.7,1.7-1,2.6-1.3l65.9-27.4
				c0.8-0.3,1.7-1,2.4-0.8c1.2,0.3,2.8,0.9,3.2,1.8s-0.3,2.5-0.9,3.5c-0.4,0.6-1.5,0.9-2.3,1.2l-66,27.3
				C267.2,161.5,266.2,161.9,264.7,162.4z"/>
			<path class="st1" d="M253.4,335c-0.7,0.8-1.3,2.1-2.3,2.4c-1.2,0.2-2.3-0.1-3.3-0.8c-0.7-0.5-1-1.7-1.4-2.6
				c-9.1-22-18.2-44-27.3-66c-0.2-0.5-0.6-1-0.5-1.4c0.3-1.5,0.4-3.7,1.4-4.3c1.9-1.2,3.5,0.1,4.3,2.1c0.7,1.9,1.5,3.7,2.3,5.5
				c8.5,20.5,16.9,41.1,25.4,61.6C252.5,332.5,252.8,333.6,253.4,335z"/>
			<path class="st1" d="M264.8,217.9c1.3,0.4,2.1,0.7,2.9,1l66.6,27.6c0.2,0.1,0.6,0.1,0.7,0.3c0.9,1.4,2.7,3,2.5,4.2
				c-0.5,2.4-2.6,2.5-4.8,1.6c-6.6-2.8-13.3-5.6-20-8.3l-47-19.4c-0.9-0.4-2.1-0.7-2.6-1.4c-0.7-1-1-2.2-0.8-3.3
				C262.7,219.1,264,218.5,264.8,217.9z"/>
			<path class="st1" d="M131.3,337.8c-3.2,0.2-4.7-2-3.8-4.4c1-2.7,2.2-5.3,3.3-8l24.3-58.7c0.4-0.9,0.6-2.1,1.3-2.7
				c1.2-0.8,2.6-1.4,3.9-1.9c0.6,1.3,1.2,2.6,1.6,4c0.1,0.6-0.5,1.4-0.8,2.1c-9.1,21.9-18.1,43.8-27.2,65.6
				C133.2,335.3,132.3,336.6,131.3,337.8z"/>
			<path class="st1" d="M296.9,214.5c-9.8-2-18.8-3.7-27.6-5.7c-1-0.2-1.7-2.2-2.5-3.4c1.3-0.8,2.8-2.4,4-2.3
				c8.8,1.5,17.6,3.3,26.4,5.3c1.1,0.3,2.4,2.4,2.4,3.7C299.6,213,297.6,213.9,296.9,214.5z"/>
			<path class="st1" d="M82.9,214.6c-0.7-0.9-2.4-2.2-2.2-3c0.5-1.5,1.6-2.7,3.1-3.3c7.5-1.7,15.1-3.1,22.7-4.6
				c1.1-0.2,2.3-0.8,3.3-0.6c1.4,0.5,2.6,1.3,3.8,2.1c-0.9,1.3-1.6,3.4-2.7,3.6c-6,1.5-12.2,2.6-18.3,3.8L82.9,214.6z"/>
			<path class="st1" d="M214.6,297.1c-0.7,0.7-1.7,2.4-2.8,2.5s-3.2-1.3-3.4-2.4c-2-8.9-3.8-17.8-5.3-26.8c-0.2-1.1,1.4-2.4,2.2-3.7
				c1.2,0.8,3.3,1.4,3.5,2.4C210.9,278.1,212.6,287.2,214.6,297.1z"/>
			<path class="st1" d="M177.5,111c-0.7,0.6-1.7,2.2-2.9,2.4c-1.4-0.1-2.6-0.9-3.2-2.2c-2-9-3.8-18.1-5.4-27.2
				c-0.2-1,1.4-2.4,2.2-3.6c1.2,0.8,3.3,1.4,3.5,2.5C173.9,92,175.6,101.1,177.5,111z"/>
			<path class="st1" d="M214.5,83.5c-2,9.8-3.7,18.8-5.7,27.6c-0.2,1-2.3,1.7-3.5,2.5c-0.8-1.2-2.4-2.6-2.2-3.7
				c1.5-9,3.3-17.9,5.3-26.8c0.3-1.1,2.4-2.3,3.7-2.4C213,80.7,213.9,82.8,214.5,83.5z"/>
			<path class="st1" d="M165.8,296.8c2-9.8,3.7-18.8,5.7-27.6c0.2-1,2.3-1.7,3.4-2.5c0.8,1.2,2.5,2.6,2.3,3.6
				c-1.5,9-3.3,17.9-5.3,26.8c-0.3,1.1-2.4,2.4-3.7,2.4C167.3,299.5,166.4,297.5,165.8,296.8z"/>
			<path class="st1" d="M83.4,165.7c9.8,2,18.8,3.7,27.6,5.7c1.1,0.2,1.7,2.2,2.6,3.4c-1.3,0.8-2.8,2.5-3.9,2.3
				c-8.8-1.5-17.6-3.3-26.4-5.3c-1.1-0.3-2.4-2.4-2.5-3.7C80.7,167.3,82.7,166.4,83.4,165.7z"/>
			<path class="st1" d="M297.1,165.7c0.7,0.7,2.4,1.8,2.4,2.8c0,1.2-1.3,3.1-2.4,3.4c-8.9,2-17.8,3.8-26.8,5.3
				c-1.1,0.2-2.4-1.4-3.6-2.2c0.8-1.2,1.4-3.2,2.4-3.5C278.1,169.4,287.2,167.7,297.1,165.7z"/>
			<path class="st1" d="M126.2,144.9c-0.8,1.1-1.3,2.5-2,2.7c-1.3,0.3-2.6,0.2-3.8-0.4c-4.7-2.9-9.2-6-13.7-9.1
				c-2.7-1.8-5.4-3.6-8.1-5.4c-1.8-1.2-3-2.9-1.3-4.6c1.3-0.9,2.9-1.1,4.4-0.5c7.5,4.7,14.8,9.7,22.2,14.7
				C124.8,143,125.6,143.9,126.2,144.9z"/>
			<path class="st1" d="M148.4,123.1c-0.7,0.7-1.4,2.2-2.3,2.3c-1.4,0.1-2.8-0.4-3.7-1.4c-3.8-5.3-7.3-10.7-10.9-16.1
				c-1.4-2.2-3.2-4.2-4.2-6.6c-0.4-1.4-0.1-2.9,0.8-4c0.6-0.6,3.2-0.3,3.7,0.5c5.4,7.7,10.6,15.6,15.9,23.5
				C148,121.8,148.2,122.5,148.4,123.1z"/>
			<path class="st1" d="M148.4,257.5c-0.5,1-0.9,2-1.5,2.9c-4.6,7-9.2,13.9-13.9,20.8c-1.1,1.7-2.4,3.5-4.8,2s-1.6-3.5-0.3-5.4
				c4.7-7,9.3-14.1,14.2-21.1c1-1.1,2.4-1.9,3.9-2c1-0.1,2.2,1,3.3,1.5L148.4,257.5z"/>
			<path class="st1" d="M254,280.8c-0.7,0.8-1.4,2.3-2.2,2.4c-1.4,0.2-2.7-0.3-3.7-1.2c-2.4-3.1-4.5-6.5-6.8-9.9
				c-2.8-4.1-5.7-8.2-8.2-12.5c-0.6-1.5-0.5-3.1,0.3-4.5c1.6-1.6,3.4-0.7,4.6,1.1c4.9,7.3,9.8,14.7,14.7,22
				C253.3,279.2,253.6,280,254,280.8z"/>
			<path class="st1" d="M235.3,126.2c-1.1-0.8-2.5-1.3-2.7-2.1c-0.3-1.3-0.1-2.6,0.5-3.8c3.6-5.7,7.4-11.2,11.1-16.8
				c1.2-1.8,2.1-3.8,3.6-5.2c1-0.9,2.9-0.9,4.4-1.4c0.2,1.5,1.2,3.5,0.6,4.5c-4.8,7.6-9.8,15-14.9,22.4
				C237.2,124.8,236.3,125.6,235.3,126.2z"/>
			<path class="st1" d="M284.2,129.9c-0.7,1-1.5,1.9-2.4,2.6c-7.3,5-14.7,10-22.2,14.7c-1,0.6-3-0.3-4.5-0.4
				c0.4-1.5,0.2-3.7,1.2-4.4c7.3-5.2,14.8-10.1,22.4-15c1.1-0.5,2.3-0.6,3.4-0.2C282.9,127.5,283.4,128.8,284.2,129.9z"/>
			<path class="st1" d="M99.5,253.9c-0.8-0.6-2.3-1.3-2.4-2.2c-0.2-1.4,0.3-2.7,1.2-3.7c3.4-2.6,7-4.8,10.5-7.2
				c3.9-2.6,7.8-5.4,11.9-7.8c1.1-0.6,3,0.3,4.5,0.5c-0.3,1.4-0.1,3.6-1,4.2c-7.6,5.3-15.3,10.4-23,15.5
				C100.6,253.4,100.1,253.7,99.5,253.9z"/>
			<path class="st1" d="M257.6,231.9c0.9,0.4,1.8,0.9,2.6,1.4c7,4.6,13.9,9.3,20.9,13.9c1.8,1.2,3.7,2.6,1.9,5.1
				c-1.6,2.2-3.4,1.3-5.2,0.1c-7-4.7-14.2-9.4-21.1-14.3c-1.1-1-1.8-2.4-1.9-3.9c-0.1-1.1,0.9-2.3,1.4-3.4L257.6,231.9z"/>
			<path class="st1" d="M310.7,114.2c-1.5-2.1-3-3.3-3.1-4.5c0-1,1.7-2.9,2.5-2.8c1.4,0.3,2.6,1.3,3.1,2.6
				C313.5,110.6,312,112,310.7,114.2z"/>
			<path class="st1" d="M109.5,306.1c1.6,2,3.2,3.2,3.2,4.3s-1.7,2.6-2.9,2.9c-0.8,0.2-2.7-1.6-2.7-2.6
				C106.9,309.5,108.2,308.2,109.5,306.1z"/>
			<path class="st1" d="M298.8,259.5c-2.1,1.5-3.3,3.1-4.4,3s-2.6-1.7-2.9-3c-0.2-0.7,1.6-2.7,2.6-2.7
				C295.3,256.9,296.5,258.2,298.8,259.5z"/>
			<path class="st1" d="M90.4,120.8c-2.1,1.3-3.4,2.7-4.3,2.5c-1.2-0.3-2.1-1.8-3.2-2.8c1.1-1,2.1-2.7,3.2-2.8
				S88.4,119.2,90.4,120.8z"/>
			<path class="st1" d="M264.1,85.7c-2,1.5-3.2,3-4.4,3.1c-1,0.1-2.9-1.7-2.8-2.4c0.2-1.3,1.5-3,2.6-3.2S262,84.4,264.1,85.7z"/>
			<path class="st1" d="M124.9,85.9c-1.9,1.5-3.2,3.1-3.9,2.9c-1.3-0.4-2.3-1.9-3.4-3c1-1,1.9-2.7,2.9-2.7
				C121.6,83.1,122.8,84.5,124.9,85.9z"/>
			<path class="st1" d="M74.2,271c-2.2,1.2-3.5,2.5-4.7,2.3c-1-0.1-2.7-2.1-2.5-2.8c0.3-1.2,1.9-2.8,3-2.8S72.2,269.3,74.2,271z"/>
			<path class="st1" d="M264.1,294.3c-2.1,1.4-3.4,3-4.5,2.8s-2.5-1.9-2.7-3.1c-0.1-0.7,1.8-2.6,2.7-2.6
				C260.9,291.5,262,292.9,264.1,294.3z"/>
			<path class="st1" d="M170.2,312.9c-2.2,1.5-3.5,3.1-4.5,2.9s-2.1-1.9-3.1-3c1-0.9,1.9-2.6,2.9-2.6S168,311.5,170.2,312.9z"/>
			<path class="st1" d="M317.4,165.8c-2.2,1.4-3.4,2.7-4.6,2.7c-1,0-2.7-1.9-2.6-2.7c0.2-1.2,1.7-2.9,2.7-3S315.3,164.3,317.4,165.8
				z"/>
			<path class="st1" d="M109.4,65.4c1.6,2.1,3.2,3.3,3.1,4.4s-1.7,2.6-2.9,2.9c-0.7,0.2-2.6-1.7-2.7-2.7S108.2,67.6,109.4,65.4z"/>
			<path class="st1" d="M67.6,210.1c1.3,2.3,2.5,3.6,2.4,4.7s-1.8,1.9-2.7,2.8c-1-1.1-2.7-2-2.8-3.2S66,212.2,67.6,210.1z"/>
			<path class="st1" d="M70,105.3c1.4,2.2,2.8,3.5,2.7,4.6c-0.1,1-2,2.8-2.7,2.6c-1.4-0.4-2.5-1.5-3-2.9
				C66.8,108.7,68.4,107.4,70,105.3z"/>
			<path class="st1" d="M170.2,67.2c-2.2,1.4-3.4,2.8-4.5,2.8s-2-1.6-3-2.5c1-1.1,1.8-2.9,3-3.1S168,65.8,170.2,67.2z"/>
			<path class="st1" d="M270.7,74.2c-1.5-2.1-3.1-3.3-3-4.4s1.8-2.5,3-2.9c0.6-0.2,2.6,1.7,2.6,2.7C273.4,70.8,272,72.1,270.7,74.2z
				"/>
			<path class="st1" d="M314.9,270.8c-2.2,1.3-3.5,2.6-4.6,2.5s-2.9-2-2.7-2.7c0.3-1.2,1.8-2.9,2.9-2.9S312.8,269.2,314.9,270.8z"/>
			<path class="st1" d="M90.4,259.6c-2.1,1.5-3.4,3.1-4.4,3c-1.4-0.5-2.5-1.6-2.9-3c-0.2-0.7,1.7-2.6,2.7-2.6
				C87,256.9,88.2,258.2,90.4,259.6z"/>
			<path class="st1" d="M274.8,310.6c-2,1.4-3.2,2.9-4.1,2.7c-1.3-0.3-2.2-1.8-3.3-2.9c1-1,2-2.8,3.1-2.9S272.9,309.1,274.8,310.6z"
				/>
			<path class="st1" d="M43.7,161.8c2.3-1.4,3.5-2.8,4.7-2.7s2,1.8,2.9,2.7c-1,1-1.9,2.7-3.1,2.8S45.9,163.3,43.7,161.8z"/>
			<path class="st1" d="M48.3,222.9c-1.4-2.1-2.8-3.3-2.8-4.5c0-1,1.8-2.9,2.5-2.8c1.2,0.3,2.9,1.6,3.1,2.7S49.7,220.6,48.3,222.9z"
				/>
			<path class="st1" d="M336.6,218.3c-2.3,1.5-3.5,3.1-4.5,2.9s-2-1.9-3.1-2.9c1-0.9,1.9-2.5,2.9-2.6S334.3,216.9,336.6,218.3z"/>
			<path class="st1" d="M294.4,116.1c1.4,2.2,2.9,3.5,2.8,4.6s-1.9,2.5-3.1,2.6c-0.7,0.1-2.5-1.8-2.5-2.8
				C291.5,119.3,292.9,118.2,294.4,116.1z"/>
			<path class="st1" d="M120.6,298.7c-1.5-2.2-3-3.5-2.9-4.5s1.9-2.5,3.1-2.6c0.8-0.1,2.6,1.7,2.6,2.7
				C123.4,295.4,122,296.6,120.6,298.7z"/>
			<path class="st1" d="M71.8,165.5c-2.2,1.5-3.4,2.9-4.5,2.9s-2.1-1.6-3.1-2.5c0.9-1.1,1.8-2.8,2.9-3.1S69.5,164.1,71.8,165.5z"/>
			<path class="st1" d="M166.3,48.3c-2.2,1.4-3.5,3-4.5,2.8c-1.4-0.6-2.4-1.7-2.7-3.2c-0.1-0.7,1.8-2.5,2.8-2.5
				S164.1,46.8,166.3,48.3z"/>
			<path class="st1" d="M218.3,52.7c-1.4-2.3-2.7-3.5-2.6-4.7c0-1,1.9-2.8,2.6-2.6c1.2,0.3,2.9,1.7,3,2.8S219.8,50.5,218.3,52.7z"/>
			<path class="st1" d="M336.5,162.1c-2.2,1.3-3.5,2.7-4.6,2.6s-2.8-2-2.6-2.7c0.4-1.4,1.5-2.5,2.9-3
				C333.1,158.9,334.4,160.5,336.5,162.1z"/>
			<path class="st1" d="M214.7,317.5c-1.5-2.2-2.8-3.4-2.9-4.5c0-1,1.8-2.9,2.4-2.8c1.2,0.2,2.9,1.5,3.1,2.6
				S216.1,315.2,214.7,317.5z"/>
			<path class="st1" d="M162,336.5c-1.6-2.2-3.2-3.4-3-4.4c0.5-1.4,1.6-2.4,3-2.8c0.7-0.1,2.6,1.7,2.6,2.7S163.4,334.3,162,336.5z"
				/>
			<path class="st1" d="M218.2,327.7c1.5,2,3.1,3.3,3,4.3s-1.8,2.5-3,2.8c-0.8,0.2-2.7-1.6-2.7-2.5
				C215.6,331.1,216.9,329.9,218.2,327.7z"/>
			<path class="st1" d="M214.3,62.7c1.6,2.1,3.1,3.4,3,4.4s-1.7,2.6-2.9,2.9c-0.7,0.2-2.6-1.6-2.7-2.5C211.8,66.3,213,65,214.3,62.7
				z"/>
			<path class="st1" d="M317.5,214.3c-2.1,1.6-3.3,3-4.5,3.1c-1,0-2.9-1.6-2.9-2.4c0.3-1.4,1.2-2.6,2.5-3.1
				C313.8,211.6,315.2,213,317.5,214.3z"/>
		</g>
	</g>
</g>
</svg>
