<svg xmlns="http://www.w3.org/2000/svg" xmlns:xlink="http://www.w3.org/1999/xlink" viewBox="0 0 833.59 352.69"><defs><style>.cls-1{mask:url(#mask);filter:url(#luminosity-noclip-4);}.cls-2,.cls-4,.cls-6{mix-blend-mode:multiply;}.cls-2{fill:url(#linear-gradient);}.cls-3{mask:url(#mask-2);filter:url(#luminosity-noclip-5);}.cls-4{fill:url(#linear-gradient-2);}.cls-5{mask:url(#mask-3);filter:url(#luminosity-noclip-6);}.cls-6{fill:url(#linear-gradient-3);}.cls-7{fill:url(#linear-gradient-4);}.cls-8{fill:url(#linear-gradient-5);}.cls-9{fill:url(#linear-gradient-6);}.cls-10{fill:url(#linear-gradient-7);}.cls-11{mask:url(#mask-4);}.cls-12{fill:url(#linear-gradient-8);}.cls-13{fill:#1e1d2b;}.cls-14{fill:url(#linear-gradient-9);}.cls-15{mask:url(#mask-5);}.cls-16{fill:url(#linear-gradient-10);}.cls-17{fill:url(#linear-gradient-11);}.cls-18{fill:url(#linear-gradient-12);}.cls-19{fill:url(#linear-gradient-13);}.cls-20{fill:url(#linear-gradient-14);}.cls-21{fill:url(#linear-gradient-15);}.cls-22{fill:url(#linear-gradient-16);}.cls-23{fill:url(#linear-gradient-17);}.cls-24{fill:url(#linear-gradient-18);}.cls-25{mask:url(#mask-6);}.cls-26{fill:url(#linear-gradient-19);}.cls-27{filter:url(#luminosity-noclip-3);}.cls-28{filter:url(#luminosity-noclip-2);}.cls-29{filter:url(#luminosity-noclip);}</style><filter id="luminosity-noclip" x="256.62" y="-8337.46" width="316.41" height="32766" filterUnits="userSpaceOnUse" color-interpolation-filters="sRGB"><feFlood flood-color="#fff" result="bg"/><feBlend in="SourceGraphic" in2="bg"/></filter><mask id="mask" x="256.62" y="-8337.46" width="316.41" height="32766" maskUnits="userSpaceOnUse"><g class="cls-29"/></mask><linearGradient id="linear-gradient" x1="-647.23" y1="-3341.27" x2="-330.82" y2="-3341.27" gradientTransform="translate(-74.2 -3166.21) rotate(180)" gradientUnits="userSpaceOnUse"><stop offset="0" stop-color="#fff"/><stop offset="0.09" stop-color="#d7d7d7"/><stop offset="0.23" stop-color="#9f9f9f"/><stop offset="0.36" stop-color="#6e6e6e"/><stop offset="0.5" stop-color="#464646"/><stop offset="0.63" stop-color="#282828"/><stop offset="0.76" stop-color="#121212"/><stop offset="0.89" stop-color="#040404"/><stop offset="1"/></linearGradient><filter id="luminosity-noclip-2" x="85.55" y="-8337.46" width="150.85" height="32766" filterUnits="userSpaceOnUse" color-interpolation-filters="sRGB"><feFlood flood-color="#fff" result="bg"/><feBlend in="SourceGraphic" in2="bg"/></filter><mask id="mask-2" x="85.55" y="-8337.46" width="150.85" height="32766" maskUnits="userSpaceOnUse"><g class="cls-28"/></mask><linearGradient id="linear-gradient-2" x1="-310.6" y1="-3342.56" x2="-159.75" y2="-3342.56" xlink:href="#linear-gradient"/><filter id="luminosity-noclip-3" x="594.55" y="-8337.46" width="150.85" height="32766" filterUnits="userSpaceOnUse" color-interpolation-filters="sRGB"><feFlood flood-color="#fff" result="bg"/><feBlend in="SourceGraphic" in2="bg"/></filter><mask id="mask-3" x="594.55" y="-8337.46" width="150.85" height="32766" maskUnits="userSpaceOnUse"><g class="cls-27"/></mask><linearGradient id="linear-gradient-3" x1="-1674.94" y1="1082.55" x2="-1524.09" y2="1082.55" gradientTransform="translate(2269.49 -906.21)" xlink:href="#linear-gradient"/><linearGradient id="linear-gradient-4" x1="416.8" y1="-239.78" x2="416.8" y2="592.66" gradientTransform="translate(593.14 -240.45) rotate(90)" gradientUnits="userSpaceOnUse"><stop offset="0" stop-color="#fff"/><stop offset="1" stop-color="#999"/></linearGradient><linearGradient id="linear-gradient-5" x1="416.8" y1="-239.78" x2="416.8" y2="588.06" gradientTransform="translate(593.14 -240.45) rotate(90)" gradientUnits="userSpaceOnUse"><stop offset="0" stop-color="#666"/><stop offset="0.28" stop-color="#a0a0a0"/><stop offset="0.51" stop-color="#ccc"/><stop offset="1" stop-color="#666"/></linearGradient><linearGradient id="linear-gradient-6" x1="264.92" y1="177.66" x2="568.67" y2="177.66" xlink:href="#linear-gradient-5"/><linearGradient id="linear-gradient-7" x1="240.45" y1="177.66" x2="593.14" y2="177.66" gradientTransform="translate(593.14 -240.45) rotate(90)" gradientUnits="userSpaceOnUse"><stop offset="0" stop-color="#ab8d60"/><stop offset="0.07" stop-color="#b29466"/><stop offset="0.51" stop-color="#dbc087"/><stop offset="1" stop-color="#ab8d60"/></linearGradient><filter id="luminosity-noclip-4" x="256.62" y="20.95" width="316.41" height="308.23" filterUnits="userSpaceOnUse" color-interpolation-filters="sRGB"><feFlood flood-color="#fff" result="bg"/><feBlend in="SourceGraphic" in2="bg"/></filter><mask id="mask-4" x="256.62" y="20.95" width="316.41" height="308.23" maskUnits="userSpaceOnUse"><g class="cls-1"><path class="cls-2" d="M256.62,175.06c0-41.17,16.46-79.87,46.35-109a161.19,161.19,0,0,1,223.72,0c29.89,29.11,46.35,67.81,46.35,109s-16.46,79.87-46.35,109A161.19,161.19,0,0,1,303,284C273.08,254.93,256.62,216.23,256.62,175.06Zm314.5,0c0-40.65-16.25-78.87-45.77-107.61a159.28,159.28,0,0,0-221,0c-29.51,28.75-45.77,67-45.77,107.61s16.25,78.87,45.77,107.61a159.28,159.28,0,0,0,221,0C554.87,253.93,571.12,215.71,571.12,175.06Z"/></g></mask><linearGradient id="linear-gradient-8" x1="-647.23" y1="-3341.27" x2="-330.82" y2="-3341.27" gradientTransform="translate(-74.2 -3166.21) rotate(180)" gradientUnits="userSpaceOnUse"><stop offset="0" stop-color="#a36d4f"/><stop offset="0.08" stop-color="#90614a"/><stop offset="0.28" stop-color="#67493f"/><stop offset="0.48" stop-color="#473636"/><stop offset="0.67" stop-color="#302830"/><stop offset="0.84" stop-color="#23202c"/><stop offset="1" stop-color="#1e1d2b"/></linearGradient><linearGradient id="linear-gradient-9" x1="363.66" y1="432.16" x2="470.57" y2="432.16" xlink:href="#linear-gradient-5"/><filter id="luminosity-noclip-5" x="85.55" y="100.92" width="150.85" height="150.85" filterUnits="userSpaceOnUse" color-interpolation-filters="sRGB"><feFlood flood-color="#fff" result="bg"/><feBlend in="SourceGraphic" in2="bg"/></filter><mask id="mask-5" x="85.55" y="100.92" width="150.85" height="150.85" maskUnits="userSpaceOnUse"><g class="cls-3"><path class="cls-4" d="M85.55,176.34A75.43,75.43,0,1,1,161,251.77,75.51,75.51,0,0,1,85.55,176.34Zm148.94,0A73.51,73.51,0,1,0,161,249.86,73.6,73.6,0,0,0,234.49,176.34Z"/></g></mask><linearGradient id="linear-gradient-10" x1="-310.6" y1="-3342.56" x2="-159.75" y2="-3342.56" xlink:href="#linear-gradient-8"/><linearGradient id="linear-gradient-11" x1="383.56" y1="528.52" x2="450.67" y2="528.52" xlink:href="#linear-gradient-7"/><linearGradient id="linear-gradient-12" x1="409.47" y1="585.81" x2="424.12" y2="585.81" gradientTransform="translate(593.14 -240.45) rotate(90)" gradientUnits="userSpaceOnUse"><stop offset="0" stop-color="#90674b"/><stop offset="0.09" stop-color="#9a7151"/><stop offset="0.51" stop-color="#c69c6d"/><stop offset="1" stop-color="#90674b"/></linearGradient><linearGradient id="linear-gradient-13" x1="406.83" y1="555.49" x2="426.76" y2="555.49" gradientTransform="translate(725.16 274.42) rotate(135)" xlink:href="#linear-gradient-7"/><linearGradient id="linear-gradient-14" x1="383.25" y1="-173.2" x2="450.35" y2="-173.2" xlink:href="#linear-gradient-7"/><linearGradient id="linear-gradient-15" x1="406.83" y1="-230.48" x2="426.76" y2="-230.48" xlink:href="#linear-gradient-12"/><linearGradient id="linear-gradient-16" x1="409.95" y1="-199.84" x2="423.65" y2="-199.84" xlink:href="#linear-gradient-7"/><linearGradient id="linear-gradient-17" x1="416.8" y1="-132.55" x2="416.8" y2="-10.68" xlink:href="#linear-gradient-4"/><linearGradient id="linear-gradient-18" x1="416.8" y1="-132.55" x2="416.8" y2="-10.68" xlink:href="#linear-gradient-4"/><filter id="luminosity-noclip-6" x="594.55" y="100.92" width="150.85" height="150.85" filterUnits="userSpaceOnUse" color-interpolation-filters="sRGB"><feFlood flood-color="#fff" result="bg"/><feBlend in="SourceGraphic" in2="bg"/></filter><mask id="mask-6" x="594.55" y="100.92" width="150.85" height="150.85" maskUnits="userSpaceOnUse"><g class="cls-5"><path class="cls-6" d="M594.55,176.34A75.42,75.42,0,1,1,670,251.77,75.51,75.51,0,0,1,594.55,176.34Zm148.94,0A73.51,73.51,0,1,0,670,249.86,73.6,73.6,0,0,0,743.49,176.34Z"/></g></mask><linearGradient id="linear-gradient-19" x1="-1674.94" y1="1082.55" x2="-1524.09" y2="1082.55" gradientTransform="translate(2269.49 -906.21)" xlink:href="#linear-gradient-8"/></defs><title>d1_1</title><g id="圖層_2" data-name="圖層 2"><g id="Object"><rect class="cls-7" x="0.48" y="175.87" width="832.44" height="0.96"/><rect class="cls-8" x="80.92" y="175.87" width="752" height="0.96"/><path class="cls-9" d="M386.44,225.47l28.51,102.35a.55.55,0,0,0,1.06,0l28.51-102.35,48.38,27a.56.56,0,0,0,.66-.09.52.52,0,0,0,.09-.64l-27.73-47.12L571,176.86a.53.53,0,0,0,0-1L465.91,148.06l27.73-47.12a.52.52,0,0,0-.09-.64.56.56,0,0,0-.66-.09l-48.38,27L416,24.87a.55.55,0,0,0-1.06,0L386.44,127.22l-48.38-27a.56.56,0,0,0-.66.09.52.52,0,0,0-.09.64L365,148.06,260,175.83a.53.53,0,0,0,0,1L365,204.63l-27.73,47.12a.52.52,0,0,0,.09.64.56.56,0,0,0,.66.09Zm-3.06-17.1,11-10.74,14.46,14.09-4.12,2.3Zm20,6.4-16.28,9.09-4-14.45Zm11.53-65.47v25.76l-13.64-13.28,12.27-13.64Zm1.1,54.09V177.63l13.64,13.28L417.4,204.56Zm.78-26.51h25.48l-11.9,13.23Zm0-1.07,13.64-13.28,14,11.95-1.2,1.34Zm-.78-.76V150.24l13.59,11.59Zm-1.87.76H388.67l11.9-13.23Zm0,1.07-13.64,13.28-14-11.95,1.2-1.34Zm.78.76v24.82l-13.59-11.59Zm0,26.24v3.84l-19.63-11,5.27-5.13Zm1.1.94,1.06.91a.56.56,0,0,0,.77-.05l12.58-14,5.22,5.08-19.63,11Zm15.14-13.94,12.58-14h3.95L436.44,196Zm13.54-15.06.93-1a.52.52,0,0,0-.05-.75l-14.36-12.25,5.22-5.08,11.25,19.12Zm-14.31-14.75L416,148.81V145l19.63,11Zm-15.46-13.19-1.06-.91a.56.56,0,0,0-.77,0l-12.58,14-5.22-5.08,19.63-11Zm-15.14,13.94-12.58,14h-3.95l11.25-19.12Zm-13.54,15.06-.93,1a.52.52,0,0,0,.05.75l14.37,12.25L394.52,196l-11.25-19.12Zm28.12,31.76-4.52,2.53L397.7,199.33Zm.55.92v6.55l-4.28-4.16Zm1.1,0,4.28,2.39L416,216.11Zm.55-.92,16.68-9.31L421.1,211.17Zm32.06-31.22,2.59,4.41-12.15,11.84Zm.95-.54h6.73L452,181Zm0-1.07,2.45-4.16,4.28,4.16Zm-.95-.54L439.08,159l12.15,11.84ZM416.58,144l4.52-2.53,12.15,11.84Zm-.55-.92v-6.55l4.28,4.16Zm-1.1,0-4.28-2.39,4.28-4.16Zm-.55.92-16.68,9.31,12.15-11.84Zm-32.06,31.22-2.59-4.41L391.88,159Zm-.95.54h-6.73l4.28-4.16Zm0,1.07L378.92,181l-4.28-4.16Zm.95.54,9.56,16.24-12.15-11.84Zm27.35,35.08,4,3.86-7.39-2Zm11.62,0,3.42,1.91-7.39,2Zm.8-.78,14.46-14.09,11,10.74L426.2,214Zm25.77-2.32-4,14.45-16.28-9.09Zm.5-1.79-11-10.74,14.46-14.09,2.36,4Zm6.57-19.51L464.26,204l-14.84,3.92ZM452.6,182l4-3.86-2,7.19Zm0-11.32,2-3.33,2,7.2Zm-.8-.78-14.46-14.09,11-10.74,5.8,20.82Zm-2.38-25.1,14.84,3.92-9.33,15.86Zm-1.84-.49-11,10.74L422.09,141l4.12-2.3Zm-20-6.4,16.28-9.09,4,14.45Zm-6.26,2.27-4-3.86,7.39,2Zm-11.62,0-3.42-1.91,7.39-2Zm-.8.78L394.4,155.06l-11-10.74,21.37-5.65Zm-25.77,2.32,4-14.45,16.28,9.09Zm-.5,1.79,11,10.74L379.16,169.9l-2.36-4ZM376,164.59l-9.33-15.86,14.84-3.92Zm2.33,6.1-4,3.86,2-7.2Zm0,11.32-2,3.33-2-7.19Zm.8.78,14.46,14.09-11,10.74-5.8-20.82Zm2.38,25.1L366.7,204,376,188.1Zm4.6,16.52-45.06,25.15,41-39.89Zm18.76-9.24,10,2.65V323.68l-27.51-98.76ZM416,323.68V217.81l10-2.65,17.48,9.76Zm32.89-114,41,39.89L444.81,224.4Zm41.73,39.13-41-39.89,15.13-4Zm-35.31-62.16,2.72-9.77H566.74L465.35,203.67Zm111.41-10.84H458.05L455.33,166l10-17Zm-117-32,41-39.89-25.83,43.88Zm40.18-40.64-41,39.89-4.1-14.73Zm-63.82,34.4-10-2.65V29l27.51,98.76ZM414.93,29V134.88l-10,2.65-17.48-9.76ZM382,143l-41-39.89,45.06,25.15Zm-41.73-39.13,41,39.89-15.13,4ZM375.62,166l-2.72,9.77H264.21L365.6,149ZM264.21,176.88H372.9l2.72,9.77-10,17Zm117.05,32-41,39.89,25.83-43.88Z"/><path class="cls-10" d="M234.42,176.34l.53-.51L415.48,0l.5.49L596.53,176.34,415.48,352.69l-.5-.49ZM415.48,2l-179,174.34,179,174.34,179-174.34Z"/><g class="cls-11"><path class="cls-12" d="M256.62,175.06c0-41.17,16.46-79.87,46.35-109a161.19,161.19,0,0,1,223.72,0c29.89,29.11,46.35,67.81,46.35,109s-16.46,79.87-46.35,109A161.19,161.19,0,0,1,303,284C273.08,254.93,256.62,216.23,256.62,175.06Zm314.5,0c0-40.65-16.25-78.87-45.77-107.61a159.28,159.28,0,0,0-221,0c-29.51,28.75-45.77,67-45.77,107.61s16.25,78.87,45.77,107.61a159.28,159.28,0,0,0,221,0C554.87,253.93,571.12,215.71,571.12,175.06Z"/></g><path class="cls-13" d="M214.44,155.26l-30.79-31.53-44.07-.52L108,154l-.52,44.07,30.79,31.53,44.07.52,31.53-30.79Zm-26.82,47.81L162,177.34l50.75,21.74Zm-26.87-25.29-.08,36.36L139,228.63Zm-22.18,50.62-4-25.1,25.73-25.65Zm22.64-50.56,20.59,51.4-20.66-15.06Zm.4-.22,25.67,25.75L182.18,229Zm.49-.72,36.36.08,14.49,21.71Zm51.37,21.74-14.59-21.86L214,156.05Zm-104.81-1.26,15-20.56,36.16.07Zm89.84-20.86-36.34-.08,51.4-20.59Zm14.79-21L161.93,176l25.75-25.67Zm-53.42,21-36.36-.08L109.13,154.7Zm1.35-.89.08-36.48h0L183,124.69Zm22.18-50.62,4,25.1-25.73,25.65Zm-22.57,14.26-.08,36.3-20.49-51.15Zm-.48,36.53-25.68-25.77,5.11-25.59Zm53.26-20.65-25.78-5.13-4-25.4Zm-30.66-30.89-22,14.54-20.84-15.05ZM139.38,124l-5.15,25.8-25.36,4Zm-5,26.24L160,176l-50.77-21.75Zm-25.87,4.28,14.68,22.12L108,197.53Zm.18,43.3L160,177.29,134.27,203Zm-.33.4,25.78,5.13,4,25.4ZM139,229.15l21.87-14.59,20.72,15.1Zm43.57.14,5.13-25.78,25.4-4Z"/><path class="cls-14" d="M214.44,155.26l-30.79-31.53-44.07-.52L108,154l-.52,44.07,30.79,31.53,44.07.52,31.53-30.79Zm-26.82,47.81L162,177.34l50.75,21.74Zm-26.87-25.29-.08,36.36L139,228.63Zm-22.18,50.62-4-25.1,25.73-25.65Zm22.64-50.56,20.59,51.4-20.66-15.06Zm.4-.22,25.67,25.75L182.18,229Zm.49-.72,36.36.08,14.49,21.71Zm51.37,21.74-14.59-21.86L214,156.05Zm-104.81-1.26,15-20.56,36.16.07Zm89.84-20.86-36.34-.08,51.4-20.59Zm14.79-21L161.93,176l25.75-25.67Zm-53.42,21-36.36-.08L109.13,154.7Zm1.35-.89.08-36.48h0L183,124.69Zm22.18-50.62,4,25.1-25.73,25.65Zm-22.57,14.26-.08,36.3-20.49-51.15Zm-.48,36.53-25.68-25.77,5.11-25.59Zm53.26-20.65-25.78-5.13-4-25.4Zm-30.66-30.89-22,14.54-20.84-15.05ZM139.38,124l-5.15,25.8-25.36,4Zm-5,26.24L160,176l-50.77-21.75Zm-25.87,4.28,14.68,22.12L108,197.53Zm.18,43.3L160,177.29,134.27,203Zm-.33.4,25.78,5.13,4,25.4ZM139,229.15l21.87-14.59,20.72,15.1Zm43.57.14,5.13-25.78,25.4-4Z"/><g class="cls-15"><path class="cls-16" d="M85.55,176.34A75.43,75.43,0,1,1,161,251.77,75.51,75.51,0,0,1,85.55,176.34Zm148.94,0A73.51,73.51,0,1,0,161,249.86,73.6,73.6,0,0,0,234.49,176.34Z"/></g><path class="cls-17" d="M42.25,208.34l1.52-.46A32.84,32.84,0,0,0,60.4,196.29a32.61,32.61,0,0,0,0-39.25,32.85,32.85,0,0,0-16.63-11.6L42.25,145l1.52-.46a33.55,33.55,0,1,1,0,64.27ZM86,176.66A32.62,32.62,0,0,0,45.56,145a33.87,33.87,0,0,1,15.6,11.44,33.56,33.56,0,0,1,0,40.4,33.85,33.85,0,0,1-15.6,11.44A32.62,32.62,0,0,0,86,176.66Z"/><circle class="cls-13" cx="7.33" cy="176.34" r="6.85"/><path class="cls-18" d="M0,176.34a7.33,7.33,0,1,1,7.33,7.33A7.34,7.34,0,0,1,0,176.34Zm13.7,0a6.37,6.37,0,1,0-6.37,6.37A6.38,6.38,0,0,0,13.7,176.34Z"/><rect class="cls-19" x="30.6" y="169.3" width="14.1" height="14.1" transform="translate(-113.67 78.27) rotate(-45)"/><path class="cls-20" d="M744,176.34a33.57,33.57,0,0,1,43.22-32.13l1.52.46-1.52.46a32.84,32.84,0,0,0-16.63,11.59,32.61,32.61,0,0,0,0,39.25,32.85,32.85,0,0,0,16.63,11.6l1.52.46-1.52.46A33.57,33.57,0,0,1,744,176.34Zm41.42-31.64a32.6,32.6,0,1,0,0,63.27,33.87,33.87,0,0,1-15.6-11.44,33.56,33.56,0,0,1,0-40.4A33.85,33.85,0,0,1,785.39,144.71Z"/><rect class="cls-13" x="817.06" y="169.77" width="13.14" height="13.14" transform="translate(116.54 634.05) rotate(-45)"/><path class="cls-21" d="M813.66,176.34l10-10,10,10-10,10Zm10-8.62L815,176.34l8.62,8.62,8.62-8.62Z"/><circle class="cls-22" cx="792.98" cy="176.34" r="6.85"/><path class="cls-13" d="M690.29,167.9l-13.21-10.53-16.47,3.76-7.33,15.22,7.33,15.22,16.47,3.76,13.21-10.53Zm-29.4,23.31-7.16-14.87,7.16-14.87L677,157.81l12.9,10.29v16.5L677,194.88Z"/><path class="cls-23" d="M690.29,167.9l-13.21-10.53-16.47,3.76-7.33,15.22,7.33,15.22,16.47,3.76,13.21-10.53Zm-29.4,23.31-7.16-14.87,7.16-14.87L677,157.81l12.9,10.29v16.5L677,194.88Z"/><path class="cls-13" d="M723.18,152.06l-38-30.28-47.12,10.75-.08-.09a.2.2,0,0,0-.36.13V133l-20.86,43.32,21.07,43.76,47.35,10.81,38-30.28Zm-.41.39v47.09l-18.08-38.45V161L681,142.09ZM722.52,200l-17.82-8.46h0V162.06Zm-.16-48-41.48-10.29,4.29-19.36Zm-70.81-3.5,33.12-25.77-4.23,19.08a.2.2,0,0,0,0,.09Zm-13.18-15.54,46-10.49-33.48,26Zm12.22,15.87-13.09,27.19.55-42.81ZM617.35,176.1,637.62,134l-.54,42.11ZM650.93,149l29.6-6.76,23.74,18.93v30.37l-23.74,18.93-29.6-6.76h0l-13.17-27.35Zm29.84,61.81,23.4-18.66-18.94,37.8-4.44-19.1Zm-42.23,8.6,12.36-15.28,29.2,6.66Zm-1.17-42.9,12.81,26.59L617.8,176.51h19.49Zm-20,.23,33.13,27.19L638,219.43Zm21.05,43.11,42-8.7,4.48,19.3ZM704.71,192l18,8.54-37.05,29.55Z"/><path class="cls-24" d="M723.18,152.06l-38-30.28-47.12,10.75-.08-.09a.2.2,0,0,0-.36.13V133l-20.86,43.32,21.07,43.76,47.35,10.81,38-30.28Zm-.41.39v47.09l-18.08-38.45V161L681,142.09ZM722.52,200l-17.82-8.46h0V162.06Zm-.16-48-41.48-10.29,4.29-19.36Zm-70.81-3.5,33.12-25.77-4.23,19.08a.2.2,0,0,0,0,.09Zm-13.18-15.54,46-10.49-33.48,26Zm12.22,15.87-13.09,27.19.55-42.81ZM617.35,176.1,637.62,134l-.54,42.11ZM650.93,149l29.6-6.76,23.74,18.93v30.37l-23.74,18.93-29.6-6.76h0l-13.17-27.35Zm29.84,61.81,23.4-18.66-18.94,37.8-4.44-19.1Zm-42.23,8.6,12.36-15.28,29.2,6.66Zm-1.17-42.9,12.81,26.59L617.8,176.51h19.49Zm-20,.23,33.13,27.19L638,219.43Zm21.05,43.11,42-8.7,4.48,19.3ZM704.71,192l18,8.54-37.05,29.55Z"/><g class="cls-25"><path class="cls-26" d="M594.55,176.34A75.42,75.42,0,1,1,670,251.77,75.51,75.51,0,0,1,594.55,176.34Zm148.94,0A73.51,73.51,0,1,0,670,249.86,73.6,73.6,0,0,0,743.49,176.34Z"/></g></g></g></svg>