<svg xmlns="http://www.w3.org/2000/svg" xmlns:xlink="http://www.w3.org/1999/xlink" viewBox="0 0 877.43 336.43"><defs><style>.cls-1{mask:url(#mask);filter:url(#luminosity-noclip-4);}.cls-2,.cls-4,.cls-6{mix-blend-mode:multiply;}.cls-2{fill:url(#linear-gradient);}.cls-3{mask:url(#mask-2);filter:url(#luminosity-noclip-5);}.cls-4{fill:url(#linear-gradient-2);}.cls-5{mask:url(#mask-3);filter:url(#luminosity-noclip-6);}.cls-6{fill:url(#linear-gradient-3);}.cls-7{fill:url(#linear-gradient-4);}.cls-8{fill:url(#linear-gradient-5);}.cls-9{fill:url(#linear-gradient-6);}.cls-10{fill:url(#linear-gradient-7);}.cls-11{fill:url(#linear-gradient-8);}.cls-12{fill:url(#linear-gradient-9);}.cls-13{mask:url(#mask-4);}.cls-14{fill:url(#linear-gradient-10);}.cls-15{mask:url(#mask-5);}.cls-16{fill:url(#linear-gradient-11);}.cls-17{mask:url(#mask-6);}.cls-18{fill:url(#linear-gradient-12);}.cls-19{fill:url(#linear-gradient-13);}.cls-20{fill:url(#linear-gradient-14);}.cls-21{fill:url(#linear-gradient-15);}.cls-22{fill:url(#linear-gradient-16);}.cls-23{fill:url(#linear-gradient-17);}.cls-24{filter:url(#luminosity-noclip-3);}.cls-25{filter:url(#luminosity-noclip-2);}.cls-26{filter:url(#luminosity-noclip);}</style><filter id="luminosity-noclip" x="254.49" y="-8670.89" width="336.43" height="32766" filterUnits="userSpaceOnUse" color-interpolation-filters="sRGB"><feFlood flood-color="#fff" result="bg"/><feBlend in="SourceGraphic" in2="bg"/></filter><mask id="mask" x="254.49" y="-8670.89" width="336.43" height="32766" maskUnits="userSpaceOnUse"><g class="cls-26"/></mask><linearGradient id="linear-gradient" x1="268.94" y1="872.69" x2="506.83" y2="634.8" gradientTransform="translate(1176.44 -219.67) rotate(90)" gradientUnits="userSpaceOnUse"><stop offset="0" stop-color="#fff"/><stop offset="0.09" stop-color="#d7d7d7"/><stop offset="0.23" stop-color="#9f9f9f"/><stop offset="0.36" stop-color="#6e6e6e"/><stop offset="0.5" stop-color="#464646"/><stop offset="0.63" stop-color="#282828"/><stop offset="0.76" stop-color="#121212"/><stop offset="0.89" stop-color="#040404"/><stop offset="1"/></linearGradient><filter id="luminosity-noclip-2" x="534.46" y="-8670.89" width="271.67" height="32766" filterUnits="userSpaceOnUse" color-interpolation-filters="sRGB"><feFlood flood-color="#fff" result="bg"/><feBlend in="SourceGraphic" in2="bg"/></filter><mask id="mask-2" x="534.46" y="-8670.89" width="271.67" height="32766" maskUnits="userSpaceOnUse"><g class="cls-25"/></mask><linearGradient id="linear-gradient-2" x1="-2334.24" y1="-3227.6" x2="-2142.14" y2="-3419.7" gradientTransform="translate(3993.94 -2069.97) rotate(-90)" xlink:href="#linear-gradient"/><filter id="luminosity-noclip-3" x="59.23" y="-8670.89" width="271.67" height="32766" filterUnits="userSpaceOnUse" color-interpolation-filters="sRGB"><feFlood flood-color="#fff" result="bg"/><feBlend in="SourceGraphic" in2="bg"/></filter><mask id="mask-3" x="59.23" y="-8670.89" width="271.67" height="32766" maskUnits="userSpaceOnUse"><g class="cls-24"/></mask><linearGradient id="linear-gradient-3" x1="291.84" y1="-1408.02" x2="483.94" y2="-1600.12" gradientTransform="translate(-1309 -219.67) rotate(90)" xlink:href="#linear-gradient"/><linearGradient id="linear-gradient-4" x1="334.67" y1="981.38" x2="441.11" y2="981.38" gradientTransform="translate(1176.44 -219.67) rotate(90)" gradientUnits="userSpaceOnUse"><stop offset="0" stop-color="#666"/><stop offset="0.28" stop-color="#a0a0a0"/><stop offset="0.51" stop-color="#ccc"/><stop offset="1" stop-color="#666"/></linearGradient><linearGradient id="linear-gradient-5" x1="278.85" y1="753.74" x2="496.92" y2="753.74" xlink:href="#linear-gradient-4"/><linearGradient id="linear-gradient-6" x1="321.36" y1="506.15" x2="454.41" y2="506.15" xlink:href="#linear-gradient-4"/><linearGradient id="linear-gradient-7" x1="359.99" y1="1089.32" x2="415.78" y2="1089.32" gradientTransform="translate(1176.44 -219.67) rotate(90)" gradientUnits="userSpaceOnUse"><stop offset="0" stop-color="#90674b"/><stop offset="0.09" stop-color="#9a7151"/><stop offset="0.51" stop-color="#c69c6d"/><stop offset="1" stop-color="#90674b"/></linearGradient><linearGradient id="linear-gradient-8" x1="375.27" y1="1062.1" x2="400.51" y2="1062.1" gradientTransform="translate(1176.44 -219.67) rotate(90)" gradientUnits="userSpaceOnUse"><stop offset="0" stop-color="#ab8d60"/><stop offset="0.07" stop-color="#b29466"/><stop offset="0.51" stop-color="#dbc087"/><stop offset="1" stop-color="#ab8d60"/></linearGradient><linearGradient id="linear-gradient-9" x1="387.89" y1="576.33" x2="387.89" y2="919.81" xlink:href="#linear-gradient-8"/><filter id="luminosity-noclip-4" x="254.49" y="0" width="336.43" height="336.43" filterUnits="userSpaceOnUse" color-interpolation-filters="sRGB"><feFlood flood-color="#fff" result="bg"/><feBlend in="SourceGraphic" in2="bg"/></filter><mask id="mask-4" x="254.49" y="0" width="336.43" height="336.43" maskUnits="userSpaceOnUse"><g class="cls-1"><path class="cls-2" d="M254.49,168.21a167.69,167.69,0,1,1,13.22,65.48A167.16,167.16,0,0,1,254.49,168.21Zm334.64,0A165.9,165.9,0,1,0,576,233,165.38,165.38,0,0,0,589.12,168.21Z"/></g></mask><linearGradient id="linear-gradient-10" x1="268.94" y1="872.69" x2="506.83" y2="634.8" gradientTransform="translate(1176.44 -219.67) rotate(90)" gradientUnits="userSpaceOnUse"><stop offset="0" stop-color="#a36d4f"/><stop offset="0.08" stop-color="#90614a"/><stop offset="0.28" stop-color="#67493f"/><stop offset="0.48" stop-color="#473636"/><stop offset="0.67" stop-color="#302830"/><stop offset="0.84" stop-color="#23202c"/><stop offset="1" stop-color="#1e1d2b"/></linearGradient><filter id="luminosity-noclip-5" x="534.46" y="32.38" width="271.67" height="271.67" filterUnits="userSpaceOnUse" color-interpolation-filters="sRGB"><feFlood flood-color="#fff" result="bg"/><feBlend in="SourceGraphic" in2="bg"/></filter><mask id="mask-5" x="534.46" y="32.38" width="271.67" height="271.67" maskUnits="userSpaceOnUse"><g class="cls-3"><path class="cls-4" d="M534.46,168.21a135.84,135.84,0,1,1,39.79,96.05A134.95,134.95,0,0,1,534.46,168.21Zm270.33,0a134.49,134.49,0,1,0-39.39,95.1A133.61,133.61,0,0,0,804.79,168.21Z"/></g></mask><linearGradient id="linear-gradient-11" x1="-2334.24" y1="-3227.6" x2="-2142.14" y2="-3419.7" gradientTransform="translate(3993.94 -2069.97) rotate(-90)" gradientUnits="userSpaceOnUse"><stop offset="0" stop-color="gray"/><stop offset="0.19" stop-color="#5f5f5f"/><stop offset="0.4" stop-color="#414141"/><stop offset="0.61" stop-color="#2b2b2b"/><stop offset="0.82" stop-color="#1d1d1d"/><stop offset="1" stop-color="#191919"/></linearGradient><filter id="luminosity-noclip-6" x="59.23" y="32.38" width="271.67" height="271.67" filterUnits="userSpaceOnUse" color-interpolation-filters="sRGB"><feFlood flood-color="#fff" result="bg"/><feBlend in="SourceGraphic" in2="bg"/></filter><mask id="mask-6" x="59.23" y="32.38" width="271.67" height="271.67" maskUnits="userSpaceOnUse"><g class="cls-5"><path class="cls-6" d="M59.23,168.21A135.84,135.84,0,1,1,99,264.26,134.95,134.95,0,0,1,59.23,168.21Zm270.33,0a134.49,134.49,0,1,0-39.39,95.1A133.61,133.61,0,0,0,329.55,168.21Z"/></g></mask><linearGradient id="linear-gradient-12" x1="291.84" y1="-1408.02" x2="483.94" y2="-1600.12" gradientTransform="translate(-1309 -219.67) rotate(90)" xlink:href="#linear-gradient-11"/><linearGradient id="linear-gradient-13" x1="359.99" y1="398.08" x2="415.78" y2="398.08" xlink:href="#linear-gradient-8"/><linearGradient id="linear-gradient-14" x1="375.27" y1="370.86" x2="400.51" y2="370.86" xlink:href="#linear-gradient-7"/><linearGradient id="linear-gradient-15" x1="387.89" y1="307.84" x2="387.89" y2="1174.32" xlink:href="#linear-gradient-4"/><linearGradient id="linear-gradient-16" x1="383.49" y1="303.41" x2="392.28" y2="303.41" xlink:href="#linear-gradient-8"/><linearGradient id="linear-gradient-17" x1="383.49" y1="1172.05" x2="392.28" y2="1172.05" xlink:href="#linear-gradient-8"/></defs><title>d2</title><g id="圖層_2" data-name="圖層 2"><g id="Object"><path class="cls-7" d="M148.21,221.41a.2.2,0,0,0,.2,0l0,0,0,0,0-.06,93.22-52.86h.07v0l.1-.06a.2.2,0,0,0,0-.35l-93.5-53a.2.2,0,0,0-.3.17v106A.2.2,0,0,0,148.21,221.41Zm92.72-52.92-46.45,26.34,0,0,15.18-26.3Zm-69.84,13.07,22.43,12.93H163.89l-.07-.12ZM163.59,194l-14.48-25.08,21.63,12.47Zm45.65-25.49-15,26-23-13.23,7.22-12.73Zm31.95-.4h-31.4l-15.27-26.44,0,0Zm-70.39-13L149,167.75l14.6-25.28Zm-7-13,.07-.12h29.64l-22.39,13Zm30.43-.08,15.07,26.1H178.64l-7.31-12.83Zm.14-.43H163.77a.2.2,0,0,0-.17.1v0l-14.8-26ZM148.51,116l14.84,26-14.84,25.71ZM171,155.46l7.27,12.75,0,0L170.94,181l-22.09-12.73Zm-22.48,13.19,14.85,25.72-14.85,26.18Zm15.08,26.12h0a.2.2,0,0,0,.17.1h30.62L148.9,220.67Z"/><path class="cls-8" d="M297,168.29h0a.46.46,0,0,0,.1.28L359.68,277a.47.47,0,0,0,.4.23H485.34a.47.47,0,0,0,.4-.23l62.63-108.48a.47.47,0,0,0,0-.47L485.74,59.6a.47.47,0,0,0-.4-.23h-.82a.46.46,0,0,0-.74,0H361.31a.46.46,0,0,0-.74,0h-.49a.47.47,0,0,0-.4.23L297.13,167.94A.46.46,0,0,0,297,168.29Zm63.39,108L298.74,169.6l61.74,36.59v70.13ZM424,169.6l59.71,36V275Zm59,106-59.47-33v-72ZM422.52,242.7l-60.36,32.9,60.36-106.07ZM361.41,275v-68.7l60-36.7Zm1.36,1.29,60.33-32.88,59.25,32.88Zm122.3,0h-.46V206.19l62.1-36.63Zm61.17-107.57-61.67,36.38a.46.46,0,0,0-.19-.23l-60-36.15Zm-125.21,0-60,36.7-61.93-36.7Zm64-108.46L546.67,167l-62.06-36.89V60.3Zm-122.79.76,60.24,33.12V167Zm59,105.67L361.41,130.1V61.4ZM423.45,94l59.35-33L423.45,166Zm60.23-32.64v69.46l-59.59,35.88Zm-1.41-1.11-59.4,33-60-33Zm-121.92,0h.13v69.8l-61.7,36.85ZM299.12,167.82l61.82-36.92,60.34,36.92Zm125,0,60.26-36.29a.46.46,0,0,0,.22-.36l61.65,36.65Z"/><path class="cls-9" d="M670.52,234.56l12.16-44.83,20.64,11.83a.23.23,0,0,0,.32-.32L691.81,180.6l44.83-12.16a.23.23,0,0,0,0-.45l-44.83-12.16,11.83-20.64a.23.23,0,0,0-.32-.32L682.68,146.7l-12.16-44.83a.23.23,0,0,0-.45,0L657.9,146.7l-20.64-11.83a.23.23,0,0,0-.32.32l11.83,20.64L603.94,168a.23.23,0,0,0,0,.45l44.83,12.16-11.83,20.64a.23.23,0,0,0,.32.32l20.64-11.83,12.16,44.83a.23.23,0,0,0,.45,0Zm.34-66.12H684l-4.8,8.38Zm8,8.71-8.38,4.8V168.78Zm-8-9.18,8.38-8.38L684,168Zm-.33-.33V154.47l8.38,4.8Zm-.47,0-8.38-8.38,8.38-4.8Zm-.33.33H656.55l4.8-8.38Zm0,.47-8.38,8.38-4.8-8.38Zm.33.33V182l-8.38-4.8Zm.7,13.58,8.48-4.86,4.74,4.74-9.12,2.47Zm3.47,2.53-3.7,1v-3.13Zm9.88-2.19L682.39,189l-6.95-4Zm.21-.78-4.74-4.74,4.86-8.48,2.35,4.11Zm2.8-8.54,4,6.94L684.77,182Zm-2.28-4.92H688l-1,3.7Zm0-.47,2.12-3.7,1,3.7Zm-.4-.24-4.86-8.48,4.74-4.74,2.47,9.12Zm.33-13.34,6.33,1.72-4,6.95Zm-.78-.21-4.74,4.74-8.48-4.86,4.11-2.35Zm-8.54-2.8,6.95-4,1.72,6.33Zm-4.92,2.28v-3.13l3.7,1Zm-.47,0-3.7-2.12,3.7-1Zm-.24.4-8.48,4.86-4.74-4.74,9.12-2.47Zm-13.34-.33,1.72-6.33,6.95,4Zm-.21.78,4.74,4.74-4.86,8.48-2.35-4.11Zm-2.8,8.54-4-6.95,6.33-1.72Zm2.28,4.92h-3.13l1-3.7Zm0,.47-2.12,3.7-1-3.7Zm.4.24,4.86,8.48-4.74,4.74-2.47-9.12ZM655.81,182l-6.33-1.72,4-6.94Zm.78.21,4.74-4.74,8.48,4.86-4.11,2.35Zm8.54,2.8-6.94,4-1.72-6.33Zm4.92-2.28v3.13l-3.7-1Zm.47,3.61,4.28-1.16,7.46,4.27-11.74,43.26Zm14-3.57L702,200.28l-19.22-11ZM702.36,200l-17.47-17.47,6.45-1.75ZM687.3,172.73l1.16-4.28h46.37l-43.26,11.74ZM734.83,168H688.46l-1.16-4.28,4.27-7.46Zm-49.94-14,17.47-17.47-11,19.22ZM702,136.14l-17.47,17.47-1.75-6.45ZM674.8,151.21l-4.28-1.16V103.68l11.74,43.26Zm-4.75-47.53v46.37l-4.28,1.16-7.46-4.27Zm-14,49.94-17.47-17.47,19.22,11Zm-17.8-17.14,17.47,17.47-6.45,1.75Zm15.07,27.22L652.13,168H605.76L649,156.24Zm-47.53,4.75h46.37l1.16,4.28L649,180.18Zm49.94,14L638.22,200l11-19.22Zm-17.14,17.8L656,182.81l1.75,6.45Zm27.23-15.07,4.28,1.16v46.37l-11.74-43.26Z"/><path class="cls-10" d="M59.23,168.21a27.9,27.9,0,1,1,27.9,27.9A27.93,27.93,0,0,1,59.23,168.21Zm54.45,0a26.55,26.55,0,1,0-26.55,26.55A26.58,26.58,0,0,0,113.68,168.21Z"/><path class="cls-11" d="M101.73,168.21a12.62,12.62,0,1,1,12.62,12.62A12.63,12.63,0,0,1,101.73,168.21Zm23.9,0a11.28,11.28,0,1,0-11.28,11.28A11.29,11.29,0,0,0,125.62,168.21Z"/><path class="cls-12" d="M268.27,168.42h1.34c0,1.77,0,3.57.1,5.34l-1.34,0C268.31,172,268.27,170.21,268.27,168.42Zm.08-5.39c.06-1.79.15-3.6.27-5.38l1.34.09c-.12,1.77-.21,3.57-.27,5.34Zm.3,16.16,1.34-.09c.12,1.77.28,3.56.47,5.32l-1.34.14C268.94,182.78,268.78,181,268.65,179.19Zm.43-26.91c.18-1.78.4-3.59.64-5.35l1.33.18c-.24,1.75-.46,3.53-.64,5.3Zm.7,37.62,1.33-.19c.25,1.75.53,3.53.84,5.28l-1.32.23C270.31,193.47,270,191.68,269.78,189.91Zm.77-48.3c.31-1.76.65-3.54,1-5.29l1.31.28c-.36,1.73-.7,3.5-1,5.25Zm1.1,58.91,1.31-.28c.37,1.74.78,3.49,1.2,5.2l-1.3.33C272.44,204,272,202.27,271.66,200.52Zm1.11-69.46c.43-1.74.89-3.49,1.38-5.21l1.29.37c-.48,1.7-.95,3.44-1.37,5.16Zm1.5,79.92,1.29-.37c.49,1.7,1,3.42,1.57,5.11l-1.28.42C275.29,214.43,274.76,212.7,274.27,211Zm1.45-90.28c.55-1.7,1.14-3.43,1.75-5.11l1.26.46c-.61,1.67-1.19,3.38-1.74,5.07Zm1.89,100.53,1.26-.46c.61,1.67,1.26,3.34,1.92,5l-1.24.5C278.88,224.6,278.22,222.9,277.61,221.22Zm1.79-110.69c.67-1.66,1.38-3.34,2.11-5l1.23.55c-.72,1.63-1.43,3.28-2.09,4.93Zm2.25,120.66,1.23-.55c.72,1.62,1.49,3.24,2.26,4.83l-1.21.59C283.15,234.47,282.39,232.83,281.65,231.19Zm2.13-130.53c.78-1.61,1.61-3.23,2.45-4.81l1.19.63c-.83,1.57-1.65,3.17-2.43,4.77Zm2.6,140.19,1.18-.63c.84,1.57,1.71,3.13,2.59,4.66l-1.16.67C288.11,244,287.23,242.43,286.38,240.85Zm2.47-149.72c.9-1.55,1.83-3.11,2.78-4.63l1.14.71c-.94,1.5-1.87,3-2.76,4.59Zm2.92,159,1.14-.71c.94,1.5,1.92,3,2.91,4.47l-1.11.75C293.72,253.19,292.73,251.67,291.78,250.16ZM294.57,82c1-1.48,2-3,3.09-4.42l1.09.79c-1,1.44-2.08,2.91-3.07,4.38Zm3.24,177.09,1.09-.79c1,1.43,2.13,2.87,3.22,4.26l-1.06.83C300,262,298.87,260.52,297.81,259.07Zm3.1-185.82c1.1-1.41,2.25-2.82,3.39-4.19l1,.86c-1.14,1.36-2.27,2.75-3.36,4.16Zm3.54,194.3,1-.86c1.14,1.36,2.32,2.71,3.51,4l-1,.9C306.79,270.28,305.6,268.92,304.45,267.55ZM307.84,65c1.2-1.33,2.43-2.66,3.67-3.94l1,.93c-1.23,1.28-2.46,2.59-3.64,3.91Zm3.83,210.56,1-.93c1.23,1.27,2.5,2.54,3.78,3.78l-.93,1C314.19,278.11,312.91,276.83,311.67,275.55Zm3.65-218.32c1.28-1.24,2.61-2.48,3.94-3.68l.9,1c-1.32,1.19-2.63,2.42-3.9,3.65ZM319.42,283l.9-1c1.32,1.19,2.68,2.37,4,3.51l-.86,1C322.12,285.42,320.76,284.23,319.42,283Zm3.89-233c1.37-1.15,2.77-2.29,4.18-3.4l.83,1.06c-1.4,1.09-2.79,2.23-4.14,3.37ZM327.68,290l.83-1.06c1.4,1.09,2.83,2.17,4.27,3.22l-.79,1.09C330.54,292.15,329.09,291.06,327.68,290Zm4.1-246.59c1.45-1.05,2.93-2.1,4.4-3.1l.75,1.11c-1.46,1-2.93,2-4.37,3.07Zm4.62,252.94.75-1.11c1.47,1,3,2,4.48,2.91l-.71,1.14C339.41,298.29,337.89,297.3,336.41,296.3Zm4.29-259c1.51-.95,3.06-1.88,4.61-2.78l.67,1.16c-1.53.89-3.07,1.82-4.57,2.76ZM345.56,302l.67-1.16c1.54.89,3.11,1.76,4.68,2.6l-.63,1.19C348.7,303.8,347.11,302.92,345.56,302ZM350,31.93c1.57-.84,3.18-1.67,4.79-2.45l.59,1.21c-1.59.78-3.19,1.6-4.74,2.43Zm5.08,275.16.59-1.21c1.6.78,3.24,1.54,4.85,2.26l-.55,1.23C358.35,308.65,356.7,307.88,355.09,307.09Zm4.57-279.9c1.63-.73,3.29-1.44,4.94-2.11l.51,1.24c-1.63.66-3.28,1.37-4.9,2.09ZM365,311.49l.5-1.25c1.65.67,3.33,1.31,5,1.92l-.46,1.26C368.32,312.81,366.62,312.16,365,311.49Zm4.67-288.34c1.68-.61,3.39-1.21,5.09-1.76l.42,1.28c-1.69.55-3.39,1.14-5,1.75Zm5.49,292,.41-1.28c1.69.55,3.41,1.07,5.11,1.55l-.37,1.29C378.55,316.25,376.82,315.72,375.12,315.17ZM379.87,19.8c1.72-.49,3.47-1,5.2-1.4l.33,1.3c-1.72.43-3.46.9-5.16,1.39Zm5.61,298.33.32-1.3c1.72.43,3.47.83,5.21,1.19l-.28,1.31C389,319,387.21,318.56,385.48,318.13Zm4.85-300.94c1.75-.37,3.53-.72,5.29-1l.23,1.32c-1.75.31-3.51.65-5.24,1ZM396,320.35l.23-1.32c1.74.3,3.52.58,5.28.82l-.18,1.33C399.58,320.93,397.78,320.65,396,320.35Zm4.91-305c1.77-.25,3.57-.47,5.35-.66l.14,1.34c-1.76.19-3.55.41-5.3.65Zm5.76,306.52.14-1.34c1.76.18,3.55.33,5.32.45l-.09,1.34C410.28,322.16,408.48,322,406.7,321.82Zm5-307.65c1.78-.13,3.59-.22,5.38-.29l0,1.34c-1.77.06-3.57.16-5.33.28Zm5.8,308.38,0-1.34c1.73.06,3.48.09,5.2.09h.14v1.34h-.14C421,322.64,419.19,322.61,417.45,322.56Zm5-308.77h.28c1.79,0,3.6,0,5.39.09l0,1.34c-1.77-.06-3.57-.09-5.34-.09h-.28Zm5.76,307.42c1.78-.06,3.57-.16,5.34-.28l.09,1.34c-1.78.12-3.59.22-5.38.28Zm5.2-305.71.09-1.34c1.79.12,3.6.28,5.37.46L438.7,16C436.94,15.77,435.15,15.62,433.38,15.49Zm5.46,305c1.76-.18,3.55-.4,5.3-.65l.19,1.33c-1.77.25-3.57.47-5.35.65ZM444,16.6l.19-1.33c1.78.25,3.57.53,5.32.84l-.23,1.32C447.54,17.12,445.76,16.84,444,16.6ZM449.42,319c1.75-.31,3.51-.65,5.24-1l.28,1.31c-1.75.37-3.53.72-5.29,1Zm5.11-300.54.28-1.31c1.75.37,3.52.78,5.25,1.21l-.32,1.3C458,19.21,456.26,18.81,454.52,18.44Zm5.34,298.32c1.72-.43,3.46-.89,5.16-1.38l.37,1.29c-1.72.49-3.47,1-5.21,1.4Zm5-295.74.37-1.29c1.72.49,3.45,1,5.15,1.57L470,22.57C468.31,22,466.59,21.5,464.89,21Zm5.24,292.8c1.69-.55,3.39-1.14,5-1.74l.46,1.26c-1.68.61-3.39,1.2-5.09,1.76Zm4.93-289.49.46-1.26c1.68.61,3.38,1.26,5,1.94l-.5,1.25C478.42,25.57,476.74,24.93,475.07,24.32Zm5.1,285.83c1.64-.66,3.29-1.37,4.9-2.09l.55,1.23c-1.63.73-3.29,1.44-4.94,2.11ZM485,28.33l.55-1.23c1.64.73,3.28,1.5,4.89,2.29l-.59,1.21C488.25,29.82,486.62,29.06,485,28.33Zm4.9,277.47c1.59-.78,3.18-1.59,4.75-2.43l.63,1.19c-1.58.84-3.19,1.66-4.79,2.45ZM494.61,33l.63-1.19c1.58.84,3.17,1.73,4.72,2.62l-.67,1.16C497.76,34.75,496.18,33.87,494.61,33Zm4.69,267.75c1.53-.89,3.07-1.81,4.57-2.75l.71,1.14c-1.51.95-3.06,1.88-4.61,2.78ZM503.87,38.4l.71-1.14c1.52,1,3,1.94,4.52,2.94l-.75,1.11C506.89,40.32,505.38,39.34,503.87,38.4Zm4.47,256.73c1.47-1,2.93-2,4.37-3.07l.79,1.09c-1.45,1.05-2.93,2.09-4.41,3.09Zm4.39-250.73.79-1.09c1.45,1.05,2.89,2.15,4.3,3.25L517,47.61C515.6,46.52,514.17,45.43,512.73,44.39ZM517,288.84c1.4-1.09,2.79-2.22,4.15-3.36l.86,1c-1.37,1.15-2.77,2.29-4.18,3.39ZM521.15,51l.86-1c1.37,1.15,2.74,2.34,4.07,3.54l-.9,1C523.86,53.3,522.51,52.12,521.15,51Zm4,231c1.32-1.19,2.63-2.41,3.91-3.64l.93,1c-1.29,1.24-2.61,2.48-3.94,3.68Zm3.94-223.84.93-1c1.28,1.24,2.57,2.52,3.81,3.81l-1,.93C531.63,60.64,530.36,59.36,529.09,58.13Zm3.74,216.42c1.23-1.28,2.46-2.59,3.64-3.91l1,.9c-1.2,1.33-2.43,2.65-3.68,3.94ZM536.5,65.82l1-.9c1.2,1.33,2.39,2.7,3.53,4.07l-1,.86C538.87,68.49,537.69,67.14,536.5,65.82ZM540,266.61c1.14-1.36,2.27-2.76,3.37-4.15l1.06.83c-1.1,1.41-2.24,2.82-3.4,4.19ZM543.37,74l1.06-.83c1.1,1.41,2.19,2.86,3.24,4.3l-1.09.79C545.54,76.83,544.46,75.39,543.37,74Zm3.2,184.19c1-1.44,2.08-2.91,3.07-4.38l1.11.75c-1,1.48-2,3-3.1,4.42Zm3.08-175.56,1.11-.75c1,1.48,2,3,2.93,4.51l-1.14.71C551.62,85.6,550.64,84.1,549.65,82.63Zm2.91,166.7c.94-1.5,1.87-3,2.76-4.58l1.16.67c-.9,1.55-1.83,3.11-2.78,4.62Zm2.75-157.66,1.16-.67c.89,1.54,1.77,3.13,2.61,4.7l-1.19.63C557.06,94.77,556.19,93.2,555.31,91.67Zm2.6,148.4c.84-1.57,1.65-3.17,2.43-4.77l1.21.59c-.78,1.61-1.61,3.23-2.45,4.81Zm2.41-139,1.21-.59c.78,1.6,1.55,3.24,2.28,4.87l-1.23.55C561.86,104.29,561.1,102.67,560.32,101.08Zm2.29,129.37c.72-1.62,1.43-3.28,2.09-4.93l1.25.5c-.67,1.66-1.38,3.34-2.11,5Zm2.05-119.64,1.25-.5c.67,1.66,1.32,3.35,1.93,5l-1.26.46C566,114.13,565.33,112.45,564.66,110.81Zm2,109.71c.61-1.67,1.19-3.37,1.74-5.07l1.28.41c-.55,1.71-1.14,3.43-1.76,5.11Zm1.7-99.67,1.28-.42c.55,1.7,1.08,3.43,1.58,5.15l-1.29.37C569.39,124.25,568.87,122.53,568.32,120.85Zm1.6,89.49c.49-1.7.95-3.44,1.38-5.16l1.3.32c-.43,1.74-.9,3.49-1.39,5.21Zm1.34-79.23,1.3-.32c.43,1.73.84,3.5,1.21,5.25l-1.31.28C572.09,134.58,571.69,132.83,571.26,131.11ZM572.49,200c.37-1.73.71-3.5,1-5.25l1.32.23c-.31,1.76-.65,3.54-1,5.29Zm1-58.41,1.32-.23c.31,1.76.59,3.55.84,5.32l-1.33.19C574.06,145.08,573.78,143.31,573.48,141.56Zm.85,47.88c.24-1.75.46-3.54.64-5.3l1.34.14c-.18,1.78-.4,3.58-.65,5.35Zm.63-37.3,1.34-.14c.19,1.77.34,3.58.47,5.37l-1.34.09C575.29,155.69,575.14,153.9,575,152.14Zm.47,26.68c.12-1.76.21-3.56.27-5.34l1.34,0c-.06,1.79-.15,3.6-.28,5.38Zm.27-16,1.34,0c.06,1.78.09,3.6.09,5.39h-1.34C575.79,166.37,575.75,164.57,575.69,162.8Z"/><g class="cls-13"><path class="cls-14" d="M254.49,168.21a167.69,167.69,0,1,1,13.22,65.48A167.16,167.16,0,0,1,254.49,168.21Zm334.64,0A165.9,165.9,0,1,0,576,233,165.38,165.38,0,0,0,589.12,168.21Z"/></g><g class="cls-15"><path class="cls-16" d="M534.46,168.21a135.84,135.84,0,1,1,39.79,96.05A134.95,134.95,0,0,1,534.46,168.21Zm270.33,0a134.49,134.49,0,1,0-39.39,95.1A133.61,133.61,0,0,0,804.79,168.21Z"/></g><g class="cls-17"><path class="cls-18" d="M59.23,168.21A135.84,135.84,0,1,1,99,264.26,134.95,134.95,0,0,1,59.23,168.21Zm270.33,0a134.49,134.49,0,1,0-39.39,95.1A133.61,133.61,0,0,0,329.55,168.21Z"/></g><path class="cls-19" d="M750.46,168.21a27.9,27.9,0,1,1,27.9,27.9A27.93,27.93,0,0,1,750.46,168.21Zm54.45,0a26.55,26.55,0,1,0-26.55,26.55A26.58,26.58,0,0,0,804.91,168.21Z"/><path class="cls-20" d="M793,168.21a12.62,12.62,0,1,1,12.62,12.62A12.63,12.63,0,0,1,793,168.21Zm23.9,0a11.28,11.28,0,1,0-11.28,11.28A11.29,11.29,0,0,0,816.86,168.21Z"/><rect class="cls-21" x="4.97" y="167.77" width="869.12" height="0.9"/><circle class="cls-22" cx="873.03" cy="168.21" r="4.4"/><circle class="cls-23" cx="4.4" cy="168.21" r="4.4"/></g></g></svg>