<svg xmlns="http://www.w3.org/2000/svg" xmlns:xlink="http://www.w3.org/1999/xlink" viewBox="0 0 631.63 234.61"><defs><style>.cls-1{isolation:isolate;}.cls-2{fill:#c5aa80;}.cls-10,.cls-11,.cls-13,.cls-14,.cls-15,.cls-16,.cls-18,.cls-19,.cls-20,.cls-21,.cls-23,.cls-24,.cls-25,.cls-26,.cls-28,.cls-29,.cls-3,.cls-30,.cls-31,.cls-4,.cls-5,.cls-6,.cls-8,.cls-9{mix-blend-mode:lighten;}.cls-3{fill:url(#radial-gradient);}.cls-4{fill:url(#radial-gradient-2);}.cls-5{fill:url(#radial-gradient-3);}.cls-6{fill:url(#radial-gradient-4);}.cls-7{fill:url(#radial-gradient-5);}.cls-8{fill:url(#radial-gradient-6);}.cls-9{fill:url(#radial-gradient-7);}.cls-10{fill:url(#radial-gradient-8);}.cls-11{fill:url(#radial-gradient-9);}.cls-12{fill:url(#radial-gradient-10);}.cls-13{fill:url(#radial-gradient-11);}.cls-14{fill:url(#radial-gradient-12);}.cls-15{fill:url(#radial-gradient-13);}.cls-16{fill:url(#radial-gradient-14);}.cls-17{fill:url(#radial-gradient-15);}.cls-18{fill:url(#radial-gradient-16);}.cls-19{fill:url(#radial-gradient-17);}.cls-20{fill:url(#radial-gradient-18);}.cls-21{fill:url(#radial-gradient-19);}.cls-22{fill:url(#radial-gradient-20);}.cls-23{fill:url(#radial-gradient-21);}.cls-24{fill:url(#radial-gradient-22);}.cls-25{fill:url(#radial-gradient-23);}.cls-26{fill:url(#radial-gradient-24);}.cls-27{fill:url(#radial-gradient-25);}.cls-28{fill:url(#radial-gradient-26);}.cls-29{fill:url(#radial-gradient-27);}.cls-30{fill:url(#radial-gradient-28);}.cls-31{fill:url(#radial-gradient-29);}.cls-32{fill:url(#radial-gradient-30);}.cls-33{fill:none;stroke:#c5aa80;stroke-miterlimit:10;stroke-width:2px;}</style><radialGradient id="radial-gradient" cx="-1975.16" cy="-4257.74" r="15.39" gradientTransform="matrix(0.01, 1, 0.14, 0, 1204.82, 2028.88)" gradientUnits="userSpaceOnUse"><stop offset="0" stop-color="#c5aa80"/><stop offset="0.14" stop-color="#af9772" stop-opacity="0.89"/><stop offset="0.44" stop-color="#77674d" stop-opacity="0.6"/><stop offset="0.87" stop-color="#1e1a13" stop-opacity="0.15"/><stop offset="1" stop-opacity="0"/></radialGradient><radialGradient id="radial-gradient-2" cx="-5575.11" cy="349.97" r="15.39" gradientTransform="matrix(1, -0.01, 0, -0.14, 6173.86, 66.07)" xlink:href="#radial-gradient"/><radialGradient id="radial-gradient-3" cx="1844.75" cy="-2686.35" r="8.23" gradientTransform="matrix(1, 0.01, 0, 0.14, -1248.91, 418.25)" xlink:href="#radial-gradient"/><radialGradient id="radial-gradient-4" cx="-4003.56" cy="-3469.35" r="8.23" gradientTransform="matrix(-0.01, 1, -0.14, 0, 86.88, 4058.09)" xlink:href="#radial-gradient"/><radialGradient id="radial-gradient-5" cx="-2226.11" cy="-4218.99" r="9.27" gradientTransform="matrix(0, -1, -1, 0, -3620.63, -2168.27)" xlink:href="#radial-gradient"/><radialGradient id="radial-gradient-6" cx="-2001.96" cy="-3682.51" r="15.45" gradientTransform="matrix(0.01, 1, 0.14, 0, 549.64, 2079.21)" xlink:href="#radial-gradient"/><radialGradient id="radial-gradient-7" cx="-4999.88" cy="376.77" r="15.45" gradientTransform="matrix(1, -0.01, 0, -0.14, 5023.25, 96.91)" xlink:href="#radial-gradient"/><radialGradient id="radial-gradient-8" cx="1459" cy="-2258.76" r="8.26" gradientTransform="matrix(1, 0.01, 0, 0.14, -1438.16, 384.57)" xlink:href="#radial-gradient"/><radialGradient id="radial-gradient-9" cx="-3575.97" cy="-3083.6" r="8.26" gradientTransform="matrix(-0.01, 1, -0.14, 0, -431.77, 3653.86)" xlink:href="#radial-gradient"/><radialGradient id="radial-gradient-10" cx="-2218.24" cy="-3643.2" r="9.3" gradientTransform="matrix(0, -1, -1, 0, -3620.23, -2137.44)" xlink:href="#radial-gradient"/><radialGradient id="radial-gradient-11" cx="-2101.6" cy="-3682.51" r="20.21" gradientTransform="matrix(0.01, 1, 0.14, 0, 549.69, 2278.49)" xlink:href="#radial-gradient"/><radialGradient id="radial-gradient-12" cx="-4999.88" cy="476.41" r="20.21" gradientTransform="matrix(1, -0.01, 0, -0.14, 5022.68, 210.42)" xlink:href="#radial-gradient"/><radialGradient id="radial-gradient-13" cx="1529.86" cy="-2188.62" r="10.8" gradientTransform="matrix(1, 0.01, 0, 0.14, -1509.58, 474.01)" xlink:href="#radial-gradient"/><radialGradient id="radial-gradient-14" cx="-3505.83" cy="-3154.45" r="10.8" gradientTransform="matrix(-0.01, 1, -0.14, 0, -441.71, 3683.36)" xlink:href="#radial-gradient"/><radialGradient id="radial-gradient-15" cx="-2317.7" cy="-3637.2" r="12.17" gradientTransform="matrix(0, -1, -1, 0, -3614.9, -2137.25)" xlink:href="#radial-gradient"/><radialGradient id="radial-gradient-16" cx="-2095.3" cy="-3764.53" r="15.45" gradientTransform="matrix(0.01, 1, 0.14, 0, 643.11, 2266.35)" xlink:href="#radial-gradient"/><radialGradient id="radial-gradient-17" cx="-5081.89" cy="470.11" r="15.45" gradientTransform="matrix(1, -0.01, 0, -0.14, 5186.75, 203.17)" xlink:href="#radial-gradient"/><radialGradient id="radial-gradient-18" cx="1583.04" cy="-2251.35" r="8.26" gradientTransform="matrix(1, 0.01, 0, 0.14, -1480.79, 476.52)" xlink:href="#radial-gradient"/><radialGradient id="radial-gradient-19" cx="-3568.56" cy="-3207.63" r="8.26" gradientTransform="matrix(-0.01, 1, -0.14, 0, -367.57, 3740.22)" xlink:href="#radial-gradient"/><radialGradient id="radial-gradient-20" cx="-2316.35" cy="-3719.44" r="9.3" gradientTransform="matrix(0, -1, -1, 0, -3615.09, -2141.66)" xlink:href="#radial-gradient"/><radialGradient id="radial-gradient-21" cx="-2130.34" cy="584.4" r="20.13" gradientTransform="matrix(-1, -0.01, 0, -0.14, -1521.55, 246.53)" xlink:href="#radial-gradient"/><radialGradient id="radial-gradient-22" cx="-732.96" cy="505.15" r="20.13" gradientTransform="translate(544.48 -552.69) rotate(-89.58) scale(1 0.14)" xlink:href="#radial-gradient"/><radialGradient id="radial-gradient-23" cx="-1452.4" cy="863.4" r="10.76" gradientTransform="matrix(-0.01, -1, -0.14, 0, 718.71, -1272.21)" xlink:href="#radial-gradient"/><radialGradient id="radial-gradient-24" cx="-453.81" cy="-172.19" r="10.76" gradientTransform="matrix(-1, 0.01, 0, 0.14, 155.67, 208.27)" xlink:href="#radial-gradient"/><radialGradient id="radial-gradient-25" cx="-2089.57" cy="623.67" r="12.12" gradientTransform="translate(2699 -442.98)" xlink:href="#radial-gradient"/><radialGradient id="radial-gradient-26" cx="-2124.06" cy="502.7" r="15.39" gradientTransform="matrix(-1, -0.01, 0, -0.14, -1596.93, 229.47)" xlink:href="#radial-gradient"/><radialGradient id="radial-gradient-27" cx="-814.67" cy="498.87" r="15.39" gradientTransform="matrix(0.01, -1, 0.14, 0, 464.2, -640.12)" xlink:href="#radial-gradient"/><radialGradient id="radial-gradient-28" cx="-1399.42" cy="800.91" r="8.23" gradientTransform="matrix(-0.01, -1, -0.14, 0, 628.7, -1224.95)" xlink:href="#radial-gradient"/><radialGradient id="radial-gradient-29" cx="-516.3" cy="-225.17" r="8.23" gradientTransform="matrix(-1, 0.01, 0, 0.14, 11.51, 210.31)" xlink:href="#radial-gradient"/><radialGradient id="radial-gradient-30" cx="-2088.23" cy="541.74" r="9.27" gradientTransform="matrix(1, 0, 0, 1, 2615.91, -366.77)" xlink:href="#radial-gradient"/></defs><title>frame</title><g class="cls-1"><g id="圖層_2" data-name="圖層 2"><g id="Object"><polygon class="cls-2" points="580.05 104.41 596.45 107.57 580.09 111.11 577.84 132.35 575.08 111.12 558.92 108.01 574.97 104.52 577.25 82.9 580.05 104.41"/><polygon class="cls-2" points="577.77 105.16 587.63 97.77 580.46 107.82 587.73 117.52 577.84 110.47 568.12 117.75 575.15 107.88 567.75 98.01 577.77 105.16"/><polygon class="cls-2" points="157.97 185.44 174.43 188.62 158.01 192.17 155.75 213.49 152.99 192.18 136.76 189.06 152.87 185.56 155.16 163.85 157.97 185.44"/><polygon class="cls-2" points="155.69 186.19 165.58 178.78 158.38 188.87 165.68 198.6 155.75 191.52 146 198.83 153.05 188.93 145.63 179.02 155.69 186.19"/><ellipse class="cls-3" cx="598.42" cy="58.04" rx="3.02" ry="17.02" transform="translate(536.37 656.06) rotate(-89.62)"/><ellipse class="cls-4" cx="598.42" cy="58.04" rx="17.02" ry="3.02" transform="translate(536.37 656.06) rotate(-89.62)"/><ellipse class="cls-5" cx="598.49" cy="58.22" rx="9.09" ry="1.61" transform="translate(129.76 434.88) rotate(-44.34)"/><ellipse class="cls-6" cx="598.49" cy="58.22" rx="1.61" ry="9.09" transform="translate(129.76 434.88) rotate(-44.34)"/><circle class="cls-7" cx="598.42" cy="58.04" r="9.27" transform="translate(-2.25 32.12) rotate(-3.07)"/><ellipse class="cls-8" cx="23.01" cy="80.99" rx="3.03" ry="17.08" transform="translate(-58.13 103.46) rotate(-89.62)"/><ellipse class="cls-9" cx="23.01" cy="80.99" rx="17.08" ry="3.03" transform="translate(-58.13 103.46) rotate(-89.62)"/><ellipse class="cls-10" cx="23.08" cy="81.17" rx="9.13" ry="1.62" transform="translate(-50.16 39.25) rotate(-44.34)"/><ellipse class="cls-11" cx="23.08" cy="81.17" rx="1.62" ry="9.13" transform="translate(-50.16 39.25) rotate(-44.34)"/><circle class="cls-12" cx="23.01" cy="80.99" r="9.3" transform="translate(-4.3 1.35) rotate(-3.07)"/><ellipse class="cls-13" cx="22.34" cy="180.63" rx="3.96" ry="22.34" transform="translate(-158.44 201.76) rotate(-89.62)"/><ellipse class="cls-14" cx="22.34" cy="180.63" rx="22.34" ry="3.96" transform="translate(-158.44 201.76) rotate(-89.62)"/><ellipse class="cls-15" cx="22.44" cy="180.86" rx="11.94" ry="2.12" transform="translate(-120.02 67.19) rotate(-44.34)"/><ellipse class="cls-16" cx="22.44" cy="180.86" rx="2.12" ry="11.94" transform="translate(-120.02 67.19) rotate(-44.34)"/><circle class="cls-17" cx="22.34" cy="180.63" r="12.17" transform="translate(-9.64 1.45) rotate(-3.07)"/><ellipse class="cls-18" cx="104.4" cy="174.88" rx="3.03" ry="17.08" transform="translate(-71.18 278.1) rotate(-89.62)"/><ellipse class="cls-19" cx="104.4" cy="174.88" rx="17.08" ry="3.03" transform="translate(-71.18 278.1) rotate(-89.62)"/><ellipse class="cls-20" cx="104.47" cy="175.06" rx="9.13" ry="1.62" transform="translate(-92.6 122.87) rotate(-44.34)"/><ellipse class="cls-21" cx="104.47" cy="175.06" rx="1.62" ry="9.13" transform="translate(-92.6 122.87) rotate(-44.34)"/><circle class="cls-22" cx="104.4" cy="174.88" r="9.3" transform="translate(-9.21 5.84) rotate(-3.07)"/><circle class="cls-2" cx="66.29" cy="134.91" r="3.22" transform="translate(-83.4 148.57) rotate(-69.05)"/><circle class="cls-2" cx="8.18" cy="53.81" r="1.79" transform="translate(-45 42.2) rotate(-69.05)"/><circle class="cls-2" cx="620.14" cy="2.44" r="1.78" transform="translate(396.07 580.69) rotate(-69.04)"/><circle class="cls-2" cx="28.93" cy="117.72" r="1.79" transform="translate(-91.35 102.63) rotate(-69.04)"/><circle class="cls-2" cx="589.13" cy="133.13" r="1.78" transform="translate(254.1 635.68) rotate(-69.04)"/><circle class="cls-2" cx="76.93" cy="191.38" r="1.79" transform="translate(-129.3 194.78) rotate(-69.05)"/><circle class="cls-2" cx="125.87" cy="208.66" r="1.79" transform="translate(-114.01 251.58) rotate(-69.05)"/><circle class="cls-2" cx="94.16" cy="134.22" r="1.79" transform="translate(-64.86 174.16) rotate(-69.04)"/><circle class="cls-2" cx="48.92" cy="103.72" r="1.79" transform="translate(-65.44 112.31) rotate(-69.04)"/><circle class="cls-2" cx="6.39" cy="1.79" r="1.79" transform="translate(2.43 7.12) rotate(-69.04)"/><circle class="cls-2" cx="606.37" cy="84.69" r="1.78" transform="translate(310.42 620.66) rotate(-69.04)"/><path class="cls-2" d="M629.94,75.58c-5.17-.13-5,6.21-5,6.21s.45-6.32-4.71-6.45c5.17.13,5-6.21,5-6.21S624.77,75.45,629.94,75.58Z"/><path class="cls-2" d="M140.11,157.28c-5.19-.13-5,6.23-5,6.23s.45-6.35-4.73-6.48c5.19.13,5-6.23,5-6.23S134.92,157.15,140.11,157.28Z"/><path class="cls-2" d="M16.17,131.81c-5.19-.13-5,6.23-5,6.23s.45-6.35-4.73-6.48c5.19.13,5-6.23,5-6.23S11,131.68,16.17,131.81Z"/><path class="cls-2" d="M558.92,126.92c-5.17-.13-5,6.21-5,6.21s.45-6.32-4.71-6.45c5.17.13,5-6.21,5-6.21S553.75,126.8,558.92,126.92Z"/><path class="cls-2" d="M23.59,30.25c-5.19-.13-5,6.23-5,6.23S19,30.14,13.81,30c5.19.13,5-6.23,5-6.23S18.4,30.12,23.59,30.25Z"/><path class="cls-2" d="M63.07,164c-8.92-.18-8.63,10.76-8.63,10.76s.73-10.92-8.19-11.1c8.92.18,8.63-10.76,8.63-10.76S54.15,163.84,63.07,164Z"/><ellipse class="cls-23" cx="609.38" cy="180.78" rx="22.26" ry="3.95" transform="translate(-1.2 4.09) rotate(-0.38)"/><ellipse class="cls-24" cx="609.38" cy="180.78" rx="3.95" ry="22.26" transform="translate(-1.2 4.09) rotate(-0.38)"/><ellipse class="cls-25" cx="609.28" cy="181.01" rx="2.11" ry="11.89" transform="translate(53.98 490.25) rotate(-45.66)"/><ellipse class="cls-26" cx="609.28" cy="181.01" rx="11.89" ry="2.11" transform="translate(53.98 490.25) rotate(-45.66)"/><circle class="cls-27" cx="609.38" cy="180.78" r="12.12" transform="translate(396.23 779.61) rotate(-86.93)"/><ellipse class="cls-28" cx="527.63" cy="175.05" rx="17.02" ry="3.02" transform="translate(-1.16 3.54) rotate(-0.38)"/><ellipse class="cls-29" cx="527.63" cy="175.05" rx="3.02" ry="17.02" transform="translate(-1.16 3.54) rotate(-0.38)"/><ellipse class="cls-30" cx="527.56" cy="175.23" rx="1.61" ry="9.09" transform="translate(33.51 430.07) rotate(-45.66)"/><ellipse class="cls-31" cx="527.56" cy="175.23" rx="9.09" ry="1.61" transform="translate(33.51 430.07) rotate(-45.66)"/><circle class="cls-32" cx="527.63" cy="175.05" r="9.27" transform="translate(324.59 692.56) rotate(-86.93)"/><circle class="cls-2" cx="555" cy="191.49" r="1.78" transform="translate(-31.78 211.15) rotate(-20.96)"/><circle class="cls-2" cx="525.39" cy="212.27" r="1.78" transform="translate(-41.17 201.94) rotate(-20.96)"/><circle class="cls-2" cx="476.82" cy="189.7" r="1.78" transform="translate(-36.31 183.08) rotate(-20.96)"/><path class="cls-2" d="M494.36,157.28c5.17-.13,5,6.21,5,6.21s-.45-6.32,4.71-6.45c-5.17.13-5-6.21-5-6.21S499.53,157.15,494.36,157.28Z"/><path class="cls-2" d="M615.53,132.15c5.17-.13,5,6.21,5,6.21s-.45-6.32,4.71-6.45c-5.17.13-5-6.21-5-6.21S620.69,132,615.53,132.15Z"/><path class="cls-2" d="M605.78,28.09c5.17-.13,5,6.21,5,6.21s-.45-6.32,4.71-6.45c-5.17.13-5-6.21-5-6.21S610.95,28,605.78,28.09Z"/><path class="cls-2" d="M568.8,164.24c8.89-.18,8.6,10.72,8.6,10.72s-.72-10.88,8.16-11.06c-8.89.18-8.6-10.72-8.6-10.72S577.69,164.06,568.8,164.24Z"/><path class="cls-2" d="M488.55,192c8.89-.18,8.6,10.72,8.6,10.72s-.72-10.88,8.16-11.06c-8.89.18-8.6-10.72-8.6-10.72S497.44,191.86,488.55,192Z"/><line class="cls-33" x1="219.97" y1="232.63" x2="183.19" y2="195.83"/><line class="cls-33" x1="231.37" y1="233.01" x2="202.46" y2="200.45"/><line class="cls-33" x1="241.52" y1="233.32" x2="200.16" y2="180.76"/><line class="cls-33" x1="250.69" y1="233.57" x2="229.31" y2="202.81"/><line class="cls-33" x1="259.09" y1="233.78" x2="218.82" y2="167.8"/><line class="cls-33" x1="266.86" y1="233.95" x2="238.58" y2="180.76"/><line class="cls-33" x1="274.1" y1="234.09" x2="238.88" y2="157.14"/><line class="cls-33" x1="280.94" y1="234.21" x2="251.05" y2="157.14"/><line class="cls-33" x1="287.45" y1="234.3" x2="260.05" y2="148.92"/><line class="cls-33" x1="293.72" y1="234.37" x2="275.18" y2="162.17"/><line class="cls-33" x1="299.77" y1="234.42" x2="282.05" y2="143.28"/><line class="cls-33" x1="305.66" y1="234.46" x2="298.5" y2="180.76"/><line class="cls-33" x1="311.47" y1="234.48" x2="304.56" y2="140.27"/><line class="cls-33" x1="206.98" y1="232.15" x2="187.79" y2="215.11"/><line class="cls-33" x1="191.86" y1="231.53" x2="168.11" y2="212.83"/><line class="cls-33" x1="448.45" y1="195.83" x2="411.67" y2="232.63"/><line class="cls-33" x1="429.18" y1="200.45" x2="400.27" y2="233.01"/><line class="cls-33" x1="431.48" y1="180.76" x2="390.12" y2="233.32"/><line class="cls-33" x1="402.33" y1="202.81" x2="380.95" y2="233.57"/><line class="cls-33" x1="412.82" y1="167.8" x2="372.55" y2="233.78"/><line class="cls-33" x1="393.06" y1="180.76" x2="364.78" y2="233.95"/><line class="cls-33" x1="392.76" y1="157.14" x2="357.54" y2="234.09"/><line class="cls-33" x1="380.59" y1="157.14" x2="350.7" y2="234.21"/><line class="cls-33" x1="371.59" y1="148.92" x2="344.19" y2="234.3"/><line class="cls-33" x1="356.46" y1="162.17" x2="337.92" y2="234.37"/><line class="cls-33" x1="349.59" y1="143.28" x2="331.87" y2="234.42"/><line class="cls-33" x1="333.14" y1="180.76" x2="325.98" y2="234.46"/><line class="cls-33" x1="327.08" y1="140.27" x2="320.17" y2="234.48"/><line class="cls-33" x1="443.85" y1="215.11" x2="424.66" y2="232.15"/><line class="cls-33" x1="463.53" y1="212.83" x2="439.78" y2="231.53"/><line class="cls-33" x1="315.82" y1="234.49" x2="315.82" y2="157.14"/></g></g></g></svg>