<svg xmlns="http://www.w3.org/2000/svg" viewBox="0 0 376.87 376.85"><defs><style>.cls-1{opacity:0.51;}.cls-2{fill:#f27f68;}</style></defs><title>moon</title><g id="圖層_2" data-name="圖層 2"><g id="圖層_1-2" data-name="圖層 1"><g class="cls-1"><path class="cls-2" d="M183.8,228.28c-21-.22-36.85-14.34-39.42-35.18C142,173.82,155,155.33,174.54,150.66c2.55-.61,5.88-2.68,7.85.63,2.09,3.51-1.84,4.65-3.58,6.39a27.12,27.12,0,0,0,36.49,40.05c.29-.24.52-.65.84-.72,1.53-.37,3.08-.65,4.62-1,.24,1.57,1,3.31.62,4.69C216.29,217.78,201.6,228.47,183.8,228.28Z"/><path class="cls-2" d="M191.46,55.67q0,24.93,0,49.87c0,1,.3,2.2-.15,2.95-.62,1-1.91,2.49-2.73,2.39-1.12-.14-2.32-1.44-3-2.53-.46-.71-.13-1.94-.13-2.94q0-50.06,0-100.11c0-.87-.3-2,.09-2.58.71-1.11,2-2.84,2.76-2.69,1.2.24,2.34,1.65,3.08,2.84.45.72.1,1.95.1,2.95Q191.46,30.73,191.46,55.67Z"/><path class="cls-2" d="M321.56,191.44H271.69c-1,0-2.19.32-3-.11a16.4,16.4,0,0,1-3-2.78,22.41,22.41,0,0,1,3.11-3.07c.6-.41,1.7-.09,2.58-.09H371.55c1,0,2.2-.3,2.95.14,1,.61,2.46,1.89,2.36,2.72-.13,1.12-1.4,2.33-2.48,3-.7.47-1.94.13-2.94.13Z"/><path class="cls-2" d="M185.41,321.17q0-24.75,0-49.5c0-1-.32-2.19.11-3,.65-1.14,2-2.9,2.74-2.74,1.21.27,2.3,1.7,3.11,2.88.41.6.09,1.7.09,2.58q0,50.06,0,100.12c0,1,.3,2.2-.15,2.95-.61,1-1.9,2.45-2.73,2.35-1.12-.13-2.32-1.4-3-2.49-.46-.71-.13-1.94-.13-2.94Q185.41,346.29,185.41,321.17Z"/><path class="cls-2" d="M55.48,191.44H5.29c-1,0-2.2.3-2.94-.15-1-.62-2.45-1.9-2.35-2.73.13-1.12,1.4-2.32,2.49-3,.7-.46,1.94-.13,2.94-.13h100c1,0,2.22-.32,2.94.13,1.1.7,2.57,2,2.55,3s-1.55,2.18-2.68,2.85c-.75.44-1.95.12-2.95.12Z"/><path class="cls-2" d="M57.2,53.62a28,28,0,0,1,2.88,2.18Q96.55,92.21,133,128.66c1.47,1.47,2.44,3.09.77,4.87-1.83,2-3.53,1-5.12-.62Q92.21,96.45,55.82,60A5.4,5.4,0,0,1,54.5,56.1C54.58,55.27,56.11,54.57,57.2,53.62Z"/><path class="cls-2" d="M246,134.56c-3.21-.1-4.44-2.52-3.11-4.65a13.43,13.43,0,0,1,2-2.2l71-71c.62-.62,1.19-1.6,1.91-1.73,1.29-.23,3.18-.44,3.87.27s.45,2.6.2,3.89c-.14.72-1.11,1.29-1.73,1.91q-35.52,35.51-71.06,71A32.53,32.53,0,0,1,246,134.56Z"/><path class="cls-2" d="M322.71,319.06c-.07,2.88-2.31,4.33-4.28,3.32a9.91,9.91,0,0,1-2.25-1.95q-35.8-35.79-71.58-71.59c-.62-.62-1.58-1.2-1.71-1.92-.22-1.2-.34-2.94.34-3.64s2.43-.65,3.64-.48c.71.1,1.31,1.08,1.93,1.7q35.81,35.78,71.59,71.59A26.79,26.79,0,0,1,322.71,319.06Z"/><path class="cls-2" d="M135.05,245.07a23.36,23.36,0,0,1-2.24,3.24Q96.52,284.66,60.18,321c-1.54,1.54-3.18,2.74-5.12.79s-.69-3.58.84-5.11q36.34-36.31,72.72-72.58a6.77,6.77,0,0,1,4.23-1.43C133.49,242.61,134.2,244.08,135.05,245.07Z"/><path class="cls-2" d="M331.86,251c-1.57-.59-2.51-.92-3.43-1.3l-65-26.93-.34-.15c-2-.83-4.25-1.75-3.14-4.53s3.24-2.06,5.36-1.17q13.47,5.63,27,11.18L330.66,244c.92.38,2.12.62,2.63,1.33.7,1,1.4,2.49,1.12,3.5S332.61,250.42,331.86,251Z"/><path class="cls-2" d="M117.21,220.07a17.89,17.89,0,0,1-3.7,2.67c-13.31,5.61-26.68,11.09-40,16.61L47.93,249.91c-2,.84-4.31,1.8-5.51-.82-1.31-2.85,1-3.9,3.18-4.81q32.79-13.57,65.57-27.18C114.82,215.59,117.15,216.39,117.21,220.07Z"/><path class="cls-2" d="M125.84,331.83c.59-1.56.91-2.5,1.29-3.41q13.37-32.27,26.76-64.53c.43-1,.71-2.3,1.49-3s2.44-1.38,3.19-1c1,.48,1.54,2,2,3.11.18.42-.3,1.16-.53,1.73q-13.86,33.48-27.73,67c-.24.57-.39,1.4-.83,1.62-1.12.56-2.54,1.37-3.54,1.07S126.42,332.59,125.84,331.83Z"/><path class="cls-2" d="M334.74,130.08a19.37,19.37,0,0,1-3.76,2.59c-15.28,6.4-30.6,12.7-45.91,19-6.68,2.76-13.36,5.49-20,8.29-2,.86-4,1.29-5.1-1.12s.58-3.6,2.65-4.46q33.5-13.84,67-27.71C332.66,125.43,334.84,126.53,334.74,130.08Z"/><path class="cls-2" d="M160.93,114.36c-.59.75-1.17,2.21-2.06,2.43a5.09,5.09,0,0,1-3.55-.94c-.71-.47-.94-1.7-1.32-2.62q-13.46-32.45-26.89-64.9c-.38-.92-1-2-.87-2.8.24-1.17.93-2.81,1.83-3.14s2.45.49,3.47,1.16c.62.41.83,1.49,1.16,2.29q13.53,32.62,27,65.25C160.12,112,160.42,113,160.93,114.36Z"/><path class="cls-2" d="M251,45c-.54,1.44-.82,2.27-1.15,3.07q-13.57,32.79-27.15,65.58c-.24.57-.35,1.43-.79,1.65-1.28.68-2.8,1.66-4,1.42-.74-.15-1.14-2.31-1.54-3.61-.11-.37.33-.91.52-1.37q13.73-33.13,27.46-66.27c.29-.69.46-1.66,1-2,1.08-.61,2.52-1.38,3.53-1.1S250.45,44.22,251,45Z"/><path class="cls-2" d="M251,331.88c-.62.82-1.19,2.31-2.05,2.51a4.88,4.88,0,0,1-3.55-1c-.79-.6-1-1.93-1.48-3q-13.33-32.16-26.63-64.32c-.38-.92-1.12-1.93-1-2.77.2-1.19.82-2.83,1.72-3.22s2.57.24,3.5,1,1,1.94,1.46,3q13.34,32.15,26.67,64.31C250.12,329.35,250.48,330.4,251,331.88Z"/><path class="cls-2" d="M117.15,156.61c.08,3.5-2.15,4.63-5.15,3.4-8.09-3.29-16.15-6.64-24.22-10L45.94,132.7c-.69-.29-1.65-.42-2-.94-.73-1.13-1.91-3-1.49-3.59a4.59,4.59,0,0,1,3.78-1.77c2.4.48,4.64,1.76,6.95,2.71Q83.27,141.54,113.34,154A20.27,20.27,0,0,1,117.15,156.61Z"/><path class="cls-2" d="M176,110c-.8.7-1.8,2.27-3,2.39a4,4,0,0,1-3.13-2.3q-3-13.28-5.3-26.7c-.19-1.07,1.14-3,2.24-3.49.7-.34,3.12,1,3.32,1.85C172.2,90.85,174,100,176,110Z"/><path class="cls-2" d="M266.83,176c-.68-.71-2.37-1.71-2.33-2.63.05-1.23,1.27-3.23,2.3-3.46q13.28-3,26.7-5.31c1.05-.18,2.94,1.19,3.45,2.3.32.71-1,3.08-1.92,3.29C285.94,172.2,276.78,174,266.83,176Z"/><path class="cls-2" d="M82.09,164.17l22.07,4.33c1.59.31,3.15.76,4.74,1,2.19.34,4.09,1.12,3.62,3.71-.52,2.88-2.82,2.67-5,2.23l-19.74-4c-2-.39-4.06-.45-5.8-1.27a4.28,4.28,0,0,1-2.06-3.31C79.94,165.85,81.47,164.88,82.09,164.17Z"/><path class="cls-2" d="M82.27,212.67c-.68-.76-2.24-1.74-2.38-2.89a3.92,3.92,0,0,1,2.2-3.16q13.28-3,26.7-5.31c1.1-.19,2.49,1.35,3.75,2.08-.77,1.23-1.35,3.32-2.35,3.54C101.21,209,92.17,210.68,82.27,212.67Z"/><path class="cls-2" d="M164.22,294.52c2-9.92,3.7-19,5.71-27.93.22-1,2.47-2.41,3.17-2.13,1.13.46,2.64,2.32,2.46,3.33q-2.33,13.6-5.34,27.07A3.92,3.92,0,0,1,167,297C165.84,296.78,164.91,295.18,164.22,294.52Z"/><path class="cls-2" d="M212.68,294.57c-.64.65-1.59,2.36-2.51,2.35-1.23,0-3.3-1.17-3.53-2.17q-3-13.27-5.32-26.7c-.19-1.09,1.11-3,2.2-3.55.67-.34,3.13,1,3.33,1.84C208.92,275.43,210.67,284.59,212.68,294.57Z"/><path class="cls-2" d="M200.94,110c1.54-7.84,2.91-14.79,4.29-21.74.39-2,.45-4.08,1.32-5.78.62-1.22,2.35-1.88,3.59-2.79.76,1.24,2.33,2.61,2.15,3.68Q210,96.82,207,110.11a4,4,0,0,1-3.13,2.3C202.7,112.29,201.7,110.71,200.94,110Z"/><path class="cls-2" d="M294.69,212.64,273,208.34c-2-.39-4.08-.43-5.79-1.3-1.24-.62-1.93-2.34-2.86-3.56,1.23-.77,2.61-2.37,3.68-2.18q13.41,2.31,26.7,5.31c1,.23,2.21,2.25,2.26,3.48C297,211,295.3,212,294.69,212.64Z"/><path class="cls-2" d="M147.15,255a30.76,30.76,0,0,1-1.51,3c-4.62,7-9.28,13.89-13.91,20.84-1.21,1.81-2.65,3.3-4.88,1.81s-1.44-3.35-.21-5.18c4.74-7,9.35-14.14,14.22-21.08a5.73,5.73,0,0,1,3.95-1.83C145.52,252.44,146.35,254.06,147.15,255Z"/><path class="cls-2" d="M255,147c-.72-.59-2.28-1.25-2.37-2.08a4.64,4.64,0,0,1,1.3-3.72c4.51-3.31,9.24-6.32,13.89-9.43a89.59,89.59,0,0,1,8.44-5.48c1.06-.55,2.8.25,4.24.44-.22,1.43.08,3.59-.75,4.17-7.52,5.31-15.23,10.35-22.89,15.45A9.94,9.94,0,0,1,255,147Z"/><path class="cls-2" d="M252.51,279.36c-1.1.55-2.18,1.5-3.29,1.53a4.75,4.75,0,0,1-3.45-1.38c-2.22-2.84-4.11-5.95-6.11-9-2.84-4.25-5.66-8.51-8.51-12.76-1.25-1.86-1.82-3.77.43-5.16,2.08-1.3,3.48.05,4.62,1.75q7.06,10.58,14.12,21.15a22.23,22.23,0,0,1,1.29,2.62Z"/><path class="cls-2" d="M147,122c-.6.73-1.3,2.3-2.1,2.37a4.81,4.81,0,0,1-3.75-1.42c-3.59-4.94-6.9-10.08-10.29-15.16a66.93,66.93,0,0,1-4.81-7.56,3.91,3.91,0,0,1,.83-3.72c.83-.58,3.28-.35,3.8.39,5.38,7.64,10.51,15.46,15.69,23.24A9.51,9.51,0,0,1,147,122Z"/><path class="cls-2" d="M251.76,98.56c-.66,1.24-1.06,2.15-1.6,3q-6.82,10.27-13.69,20.51c-1.24,1.85-2.58,3.72-5.07,1.93-2.21-1.58-1.27-3.42-.08-5.21,4.72-7,9.34-14.14,14.21-21.06.72-1,2.61-1.6,4-1.61C250.23,96.08,251,97.68,251.76,98.56Z"/><path class="cls-2" d="M98.49,251.64c-.76-.69-2.33-1.46-2.32-2.22a5.38,5.38,0,0,1,1.6-3.93c5.35-3.86,10.9-7.43,16.38-11.1,1.86-1.25,3.61-2.8,5.64-3.6,1.16-.46,2.81.33,4.24.56-.25,1.42,0,3.55-.82,4.13-7.53,5.3-15.25,10.33-22.92,15.42A12.29,12.29,0,0,1,98.49,251.64Z"/><path class="cls-2" d="M255.13,229.71c1.21.65,2.12,1,2.94,1.58q10.27,6.81,20.51,13.66c1.89,1.26,3.62,2.68,1.92,5.11-1.55,2.21-3.39,1.28-5.19.07-7-4.73-14.12-9.34-21-14.21A5.44,5.44,0,0,1,252.6,232C252.59,231.24,254.23,230.47,255.13,229.71Z"/><path class="cls-2" d="M98.32,125.07a28.57,28.57,0,0,1,3,1.47q10.42,6.9,20.8,13.87c1.88,1.25,3.63,2.69,1.86,5.11-1.59,2.16-3.5,1.15-5.24,0-7-4.7-14.11-9.34-21-14.19A4.92,4.92,0,0,1,96,127.69C96,126.83,97.47,126,98.32,125.07Z"/><path class="cls-2" d="M113.08,69.16c-2,1.4-3.23,2.82-4.39,2.8-1,0-2.78-1.78-2.7-2.61.12-1.15,1.59-2.89,2.64-3S111,67.73,113.08,69.16Z"/><path class="cls-2" d="M119.42,80.81c1.41,2.08,2.8,3.25,2.83,4.45,0,.94-1.84,2.82-2.54,2.68-1.22-.25-2.89-1.63-3.05-2.73S118,82.88,119.42,80.81Z"/><path class="cls-2" d="M261.89,85.49c-2.29,1.25-3.58,2.53-4.72,2.41s-2.72-2-2.55-2.73c.28-1.18,1.81-2.78,2.89-2.84S259.78,83.88,261.89,85.49Z"/><path class="cls-2" d="M73.6,108.85c-2.21,1.39-3.55,2.89-4.56,2.69s-2.43-1.9-2.67-3.14c-.13-.67,1.8-2.47,2.77-2.45C70.31,106,71.47,107.38,73.6,108.85Z"/><path class="cls-2" d="M89.47,119.67c-2,1.31-3.27,2.77-4.15,2.56-1.22-.29-2.14-1.83-3.19-2.83,1-1,2-2.69,3.15-2.77S87.52,118.17,89.47,119.67Z"/><path class="cls-2" d="M310.15,217c-1.45-2.19-2.86-3.39-2.8-4.51s1.88-2.79,2.65-2.65a4.35,4.35,0,0,1,3,2.79C313.13,213.59,311.61,214.86,310.15,217Z"/><path class="cls-2" d="M329.08,212.07c1.47,2.08,3,3.33,2.92,4.39s-1.85,2.44-3,2.63c-.77.12-2.57-1.66-2.58-2.61C326.35,215.32,327.72,214.14,329.08,212.07Z"/><path class="cls-2" d="M310.35,159.72c1.34,2.29,2.64,3.52,2.55,4.64s-1.67,1.94-2.6,2.9c-1-1-2.71-1.94-2.89-3.09C307.26,163.18,308.81,161.92,310.35,159.72Z"/><path class="cls-2" d="M164.75,47.67c-2,1.4-3.19,2.79-4.35,2.8-.95,0-2.76-1.76-2.65-2.53.16-1.19,1.53-2.95,2.58-3.09S162.66,46.25,164.75,47.67Z"/><path class="cls-2" d="M52.17,160.28c-2.18,1.52-3.44,3.07-4.44,2.93s-2.05-1.86-3.06-2.89c1-.93,1.86-2.54,2.88-2.61S49.92,158.95,52.17,160.28Z"/><path class="cls-2" d="M66.71,168.51c-1.41-2.07-2.79-3.22-2.81-4.39,0-.93,1.79-2.75,2.53-2.63,1.21.21,2.93,1.55,3.1,2.63S68.13,166.43,66.71,168.51Z"/><path class="cls-2" d="M296,257.37c-2,1.41-3.21,2.83-4.38,2.83-1,0-2.84-1.77-2.75-2.57.14-1.16,1.6-2.9,2.65-3S293.94,256,296,257.37Z"/><path class="cls-2" d="M216.41,52.14c-1.45-2.22-3-3.53-2.78-4.52.21-1.14,1.93-2,3-3,.89,1,2.46,2,2.5,3S217.82,49.93,216.41,52.14Z"/><path class="cls-2" d="M168.53,66.84c-2.14,1.35-3.48,2.85-4.5,2.65s-2.34-2-2.51-3.2c-.1-.73,1.8-2.46,2.73-2.41C165.42,63.94,166.52,65.36,168.53,66.84Z"/><path class="cls-2" d="M312.19,268.41c-2.29,1.27-3.57,2.56-4.71,2.44s-2.76-2-2.58-2.71c.29-1.19,1.8-2.78,2.9-2.87S310.06,266.79,312.19,268.41Z"/><path class="cls-2" d="M89.43,257.56c-1.95,1.35-3.35,2.94-4,2.67-1.3-.5-2.19-2.06-3.25-3.18,1-.88,2.06-2.49,3.06-2.46C86.36,254.62,87.47,256.09,89.43,257.56Z"/><path class="cls-2" d="M257.27,296c-1.33-2.14-2.81-3.47-2.65-4.55s1.94-2.46,3.11-2.56c.8-.07,2.51,1.83,2.49,2.83C260.19,292.88,258.73,294,257.27,296Z"/><path class="cls-2" d="M272.39,308c-2,1.27-3.31,2.71-4.18,2.48-1.21-.32-2.1-1.87-3.12-2.9,1.06-1,2.07-2.66,3.19-2.73S270.46,306.47,272.39,308Z"/><path class="cls-2" d="M168.69,310.21c-2.19,1.37-3.39,2.69-4.56,2.67-1,0-2.81-1.82-2.67-2.49.25-1.2,1.63-2.88,2.69-3S166.52,308.77,168.69,310.21Z"/><path class="cls-2" d="M212.64,314.64c-1.46-2.24-3-3.55-2.79-4.57s1.94-2,3-2.95c.89,1,2.45,2,2.5,3S214.06,312.43,212.64,314.64Z"/><path class="cls-2" d="M160.2,333.57c-1.26-2.23-2.64-3.58-2.44-4.64a4.17,4.17,0,0,1,3.06-2.53c.77-.08,2.48,1.84,2.42,2.79C163.17,330.37,161.73,331.49,160.2,333.57Z"/><path class="cls-2" d="M220.77,329.41c-2.23,1.33-3.62,2.81-4.56,2.56a4.53,4.53,0,0,1-2.56-3.23c-.1-.7,1.85-2.4,2.85-2.38S218.69,327.83,220.77,329.41Z"/><path class="cls-2" d="M71,212.89c-2.12,1.26-3.47,2.69-4.49,2.49A4.18,4.18,0,0,1,64,212.25c-.06-.82,1.83-2.55,2.74-2.49C67.9,209.86,69,211.34,71,212.89Z"/><path class="cls-2" d="M272.41,69.23c-2,1.39-3.2,2.91-4.08,2.72-1.23-.26-2.19-1.79-3.27-2.77,1-1,2-2.71,3.08-2.83S270.41,67.8,272.41,69.23Z"/><path class="cls-2" d="M119.31,287.3c1.5,2.1,2.94,3.24,3,4.4,0,1-1.81,2.91-2.5,2.78a4.53,4.53,0,0,1-3.12-2.72C116.44,290.79,118,289.45,119.31,287.3Z"/><path class="cls-2" d="M333.44,160.5c-2.09,1.41-3.39,3-4.4,2.79s-2.39-1.91-2.6-3.14c-.12-.72,1.72-2.5,2.66-2.48C330.27,157.69,331.4,159.08,333.44,160.5Z"/><path class="cls-2" d="M113.11,307.69c-2,1.39-3.22,2.81-4.39,2.8-1,0-2.85-1.77-2.74-2.55.16-1.18,1.59-2.93,2.64-3.05S111,306.28,113.11,307.69Z"/><path class="cls-2" d="M217.14,66.56c-2.24,1.5-3.51,3-4.51,2.85s-2-1.87-3-2.91c1-.92,1.89-2.5,2.92-2.57S214.86,65.18,217.14,66.56Z"/><path class="cls-2" d="M291.43,115c1.57,2.14,3.14,3.34,3.06,4.42s-1.69,2.61-2.86,2.85c-.75.16-2.62-1.58-2.71-2.59S290.13,117.23,291.43,115Z"/><path class="cls-2" d="M48,211.95c1.23,2.26,2.48,3.54,2.4,4.72-.07.95-2,2.67-2.66,2.48-1.19-.35-2.74-1.82-2.81-2.9S46.46,214,48,211.95Z"/><path class="cls-2" d="M303.29,108.4c2.23-1.26,3.51-2.58,4.66-2.47,1,.1,2.69,2,2.54,2.76-.24,1.17-1.79,2.82-2.85,2.87S305.37,110,303.29,108.4Z"/><path class="cls-2" d="M73.57,268.44c-2.23,1.26-3.52,2.57-4.66,2.45s-2.7-2-2.54-2.77c.24-1.17,1.8-2.81,2.87-2.87S71.5,266.82,73.57,268.44Z"/></g></g></g></svg>