<svg id="圖層_1" data-name="圖層 1" xmlns="http://www.w3.org/2000/svg" viewBox="0 0 521 521"><defs><style>.cls-1{fill:#fff;}</style></defs><title>member</title><path class="cls-1" d="M149.47,471.88c-4.8-1-9.68-1.73-14.38-3.05-30.13-8.49-49.17-31.71-50.5-63.33-1.37-32.67,2.22-64.86,14.63-95.45,8-19.75,19.65-36.83,39.16-47.26a77.12,77.12,0,0,1,38.44-9.23c4.26.09,8.74,2.24,12.63,4.35,6.26,3.41,12.07,7.64,18.15,11.39q53,32.75,106-.08c4.91-3,9.91-6,14.52-9.43,8.45-6.33,17.76-7.13,27.8-5.65,27.42,4,46.78,19,59.83,43,11.66,21.39,16.9,44.61,19.24,68.55a340.44,340.44,0,0,1,1.62,37.05c-.44,36.87-25.75,64.31-62.43,68.36a16,16,0,0,0-2.68.77Z"/><path class="cls-1" d="M257.75,252.82c-56.71-.34-102.07-46-101.65-102.29A101.88,101.88,0,0,1,258.28,49.12c55.23,0,102,45.82,101.48,102.13C359.26,207.89,313.73,253.15,257.75,252.82Z"/></svg>