<svg id="圖層_1" data-name="圖層 1" xmlns="http://www.w3.org/2000/svg" viewBox="0 0 521 521"><defs><style>.cls-1{fill:#fff;}</style></defs><title>nav-member</title><path class="cls-1" d="M149.76,468.88c-1.48-.31-3-.59-4.45-.88-3.42-.65-6.64-1.27-9.81-2.19-29.22-8.45-46.7-30.49-48-60.46-1.5-35.83,3.22-66.65,14.41-94.21,9-22.24,21-36.78,37.81-45.76a74.26,74.26,0,0,1,35.43-8.88l1.55,0c3.58.07,7.7,2.06,11.26,4,3.85,2.09,7.63,4.58,11.29,7,2.18,1.44,4.44,2.92,6.72,4.33,18.06,11.15,36.41,16.81,54.56,16.81s36.58-5.68,54.67-16.89l2.65-1.63c4-2.47,8.21-5,12.09-7.95a28.51,28.51,0,0,1,18-5.69,52,52,0,0,1,7.59.6c25.63,3.77,44.49,17.33,57.65,41.48,10.23,18.78,16.23,40.2,18.89,67.42a338.12,338.12,0,0,1,1.6,36.73c-.42,35.24-24.44,61.53-59.77,65.43a11.07,11.07,0,0,0-2.49.64l-.33.11ZM263.54,450q14.33,0,28.66.05,15.84,0,31.67.06c16,0,29.25-.07,41.55-.21,30.38-.35,49.84-20.32,49.59-50.88a319.34,319.34,0,0,0-1.77-33.25c-2.69-24.12-7.66-41.86-16.1-57.5-11.3-20.95-27-31.69-48.13-32.86l-.63,0a13.81,13.81,0,0,0-6.79,1.84c-3.42,2-6.77,4.18-10,6.28-1.91,1.24-3.82,2.48-5.74,3.69-21.36,13.4-43.21,20.19-64.92,20.19-17.56,0-35.49-4.44-53.3-13.21a186.07,186.07,0,0,1-18.3-10.84c-3-2-6.17-4-9.32-5.88l-.13-.08c-1.57-1-3.53-2.14-5.75-2.14h-.27c-15.07.68-27.5,5.84-36.94,15.35-7.68,7.73-13.66,17.27-18.27,29.15-9.27,23.9-13.21,50.67-12.4,84.25.41,17,8.12,30.41,22.29,38.78,8.41,5,18.35,7.29,31.26,7.29H263.54Z"/><path class="cls-1" d="M257.23,249.78c-53.84,0-97.87-44.22-98.15-98.57a98.84,98.84,0,1,1,169,69.36,99.45,99.45,0,0,1-70,29.21Zm.66-178.89a79.76,79.76,0,1,0,56.76,23.39,80.14,80.14,0,0,0-56.76-23.39Z"/></svg>