<?xml version="1.0" encoding="utf-8"?>
<!-- Generator: Adobe Illustrator 21.0.0, SVG Export Plug-In . SVG Version: 6.00 Build 0)  -->
<svg version="1.1" id="圖層_1" xmlns="http://www.w3.org/2000/svg" xmlns:xlink="http://www.w3.org/1999/xlink" x="0px" y="0px"
	 viewBox="0 0 521 521" style="enable-background:new 0 0 521 521;" xml:space="preserve">
<style type="text/css">
	.st0{fill:#FFFFFF;}
</style>
<title>nav-course-fill</title>
<path class="st0" d="M467.3,396.1c-7.4-16.9-20.3-27.3-38.1-31.8c-0.6-0.2-1.2-0.5-1.9-0.8v-4.8c0-57.1,0-114.2,0.1-171.4
	c0-5.2-1.6-8.9-6-11.8c-5.9-4-11.6-8.3-17.9-12.9c5-3.1,9.6-6,14.2-8.9c7.5-4.7,7.7-10.7,0.7-16.1c-3.3-2.5-6.5-5.2-9.9-7.4
	c-2.8-1.8-4-4-2.9-7.8c3.6,0,7.4,0,11.2,0c7.3-0.1,10.5-3,10.4-10.2c-0.1-10.3,1.1-20.7-2.8-30.6c-6.8-17.7-19.5-28.5-38.3-32
	c-0.7-0.2-1.3-0.4-1.9-0.7H90.3c-7.9,2.3-15.5,5.3-21.7,11C57.8,70.1,52.1,82.8,49.8,97.1c-0.2,1-0.5,2.1-0.8,3.1v14.9
	c2,6.2,3.4,12.7,6.1,18.7c5,11.1,13,19.4,25.1,22.9c3.6,0.9,7.3,1.4,11,1.4c14.4,0.1,28.8,0.1,43.9,0.1v5c0,41,0.1,82-0.1,123
	c0,5.3,1.7,8.9,6.3,11.5s9,5.7,13.8,8.9c-5.3,4.7-10.2,9.3-15.3,13.7c-3.1,2.5-4.9,6.4-4.7,10.5c0.1,24.2-0.1,48.4,0.1,72.6
	c0.1,17.2,3.5,33.6,14,47.9c7.8,10.9,19.6,18.2,32.8,20.2c0.6,0.2,1.2,0.4,1.8,0.8h240.4c3.7-1,7.4-1.7,11-3
	c20.2-7.5,32.3-21.8,36.2-43c0.2-0.6,0.4-1.3,0.7-1.8v-13.2C470.5,405.9,469.4,400.8,467.3,396.1z M204.1,298.8
	c1.6-0.2,3.3-0.3,4.9-0.3h147c0.8,0,1.6,0,2.5,0c5.9,0.1,9.4,3.2,9.4,8.1c0.1,5.1-3.5,8.4-9.6,8.4c-25.3,0-50.7,0-76,0
	c-25.1,0-50.1,0-75.2,0c-6.2,0-10.1-3.5-9.9-8.5C197.4,302.6,200.3,299.4,204.1,298.8z M197.3,260.4c0.1-5.4,4-8.1,11.6-8.1h147.4
	c1.2,0,2.5-0.1,3.7,0.1c4.9,0.5,8,3.8,8,8.3c0,4.4-3.1,7.5-7.8,8.1c-1.2,0.1-2.5,0.1-3.7,0.1H209
	C201.2,268.8,197.2,265.9,197.3,260.4L197.3,260.4z M361.5,222.2c-1.6,0.3-3.3,0.4-4.9,0.3c-24.7,0-49.3,0-73.9,0
	c-25.1,0-50.1,0-75.2,0c-6.7,0-10.8-3.6-10.1-9.1c0.5-4.1,2.9-6.4,6.9-7.2c1.5-0.2,3-0.3,4.5-0.2c49.3,0,98.6,0,147.9,0
	c1.6-0.1,3.3,0,4.9,0.3c4.4,0.9,7.2,5.2,6.3,9.6C367.2,219,364.7,221.5,361.5,222.2L361.5,222.2z M360.6,176.1
	c-1.4,0.1-2.7,0.2-4.1,0.1H209c-7.9,0-11.9-2.8-11.8-8.4c0.1-5.4,4-8.1,11.6-8.1h147.5c1.4-0.1,2.8,0,4.1,0.1
	c4.6,0.6,7.6,3.9,7.5,8.3C368,172.3,365.1,175.5,360.6,176.1L360.6,176.1z M232.5,121.7c0.1-4.2,3.2-7.6,7.4-8.1
	c1.4-0.2,2.7-0.2,4.1-0.2c37.6,0,75.1,0,112.7,0c1.6-0.1,3.3,0,4.9,0.3c4.4,0.9,7.2,5.2,6.3,9.6c-0.7,3.2-3.1,5.6-6.3,6.3
	c-1.6,0.3-3.3,0.4-4.9,0.3c-18.8,0-37.7,0-56.5,0H244c-1.4,0.1-2.8,0-4.1-0.1C235.7,129.3,232.6,125.9,232.5,121.7z M118.6,141.4
	c0.5-6.8,1.8-13.6,1.4-20.3c-0.8-15.4-12.5-26.5-27.8-27.4c-5.4-0.3-9.2,2.6-9.7,7.4s2.7,8.3,8.1,9c7.6,1,11.3,3.9,12.8,10.2
	c1.9,7.9-0.4,15-6.1,18.7c-5.3,3.5-12.5,3.1-18.2-1c-6.9-5-10.8-12.1-12.4-20.3c-3-15.3-0.2-29.6,9.6-42c7.8-9.9,18.2-11.9,30-9.1
	c16.6,3.9,24.1,16.1,26.4,31.3c2.1,14.2,2,28.7,2.9,43.4L118.6,141.4z M205.8,449.5c-10,7.9-23.6,8-34.9,0.2
	c-10.6-7.4-15.6-18.3-17.8-30.5c-0.6-3.6-1.1-7.3-1.3-10.9l0.2-3.2c0.8-4.8,7.3-7.8,12.1-7.4c0.7,0,1.4,0.2,2,0.4
	c0.6,9,4.5,17.5,11.3,23c4.9,4,10.6,5.8,16.7,6.2c5.5,0.4,9.5-2.6,10-7.5c0.4-4.6-3-8.2-8.4-8.9c-8.8-1.1-12.8-5.6-13.1-14.9
	c-0.3-8.3,4.5-15.1,12.2-16.2c8.1-1.2,14,3,18.7,9.1C226,405.2,222,436.7,205.8,449.5L205.8,449.5z M416.5,455.5
	c-15.7,0.2-31.4,0-47.1,0H223.3c9.1-12.1,13.2-25,14.1-39.7l0,0c0-2.8-0.2-6-0.4-9.8c-0.2-2.9-0.6-5.8-1.2-8.7l-3.3-7.6l-4.4-10
	c0.9-0.1,2-0.2,3.1-0.2c61.4,0,122.8,0,184.2,0c17.8,0,32.7,9.9,37.6,24.9C461.6,430.5,444,455.1,416.5,455.5L416.5,455.5z"/>
</svg>
