<?xml version="1.0" encoding="utf-8"?>
<!-- Generator: Adobe Illustrator 21.0.0, SVG Export Plug-In . SVG Version: 6.00 Build 0)  -->
<svg version="1.1" id="圖層_1" xmlns="http://www.w3.org/2000/svg" xmlns:xlink="http://www.w3.org/1999/xlink" x="0px" y="0px"
	 viewBox="0 0 521 521" style="enable-background:new 0 0 521 521;" xml:space="preserve">
<style type="text/css">
	.st0{fill:#FFFFFF;}
</style>
<title>nav-card-fill</title>
<path class="st0" d="M86.9,298.3c0-51.9,0-103.8,0-155.7c0-12.2,5.7-17.9,17.8-17.9h221.2c11.8,0,17.6,5.8,17.6,17.7
	c0,103.9,0,207.9,0,311.8c0,11.9-5.8,17.7-17.6,17.7H104.2c-11.5,0-17.3-5.9-17.3-17.5C86.9,402.3,86.9,350.3,86.9,298.3z
	 M328.4,298.6c0-42.1,0-84.3,0-126.4c0-6.8-2-9.1-8.6-9.8c-7.8-0.9-13.2-6.3-14-14.1c-0.7-6.3-3.1-8.5-9.5-8.5
	c-54.1,0-108.2,0-162.3,0c-6.4,0-8.8,2.2-9.5,8.5c-0.9,7.9-6.2,13.2-14,14.1c-6.4,0.7-8.6,3-8.6,9.4c0,84.4,0,168.9,0,253.3
	c0,6,2.3,8.5,8.3,9.1c7.9,0.9,13.3,6.2,14.3,13.9c0.8,6.7,3,8.7,9.7,8.7c53.9,0,107.9,0,161.8,0c6.7,0,9-2,9.7-8.7
	c0.7-7,5.9-12.6,12.8-13.8c8.8-1.4,9.8-2.6,9.8-11.6C328.5,381.3,328.4,339.9,328.4,298.6L328.4,298.6z"/>
<path class="st0" d="M403.7,344.4c-10.8,3.4-18.1,10.6-21.5,21.6h-23.5v-5.5c0-72.5,0-145,0-217.5c0-21.4-12.2-33.5-33.7-33.5H208.1
	c-1.2-5.2-0.9-8.6,4.9-10.8c7.5-2.7,12.5-8.9,15.2-16.5c0.9-2.4,2-3,4.4-3c48.7,0.1,97.5,0.1,146.3,0c2.4,0,3.5,0.7,4.4,3
	c3.2,8.6,9.3,14.3,17.7,17.9c1.5,0.8,2.5,2.2,2.8,3.8c0.1,79.7,0.1,159.5,0.1,239.2C403.9,343.6,403.8,344,403.7,344.4z"/>
<path class="st0" d="M358.8,396v-14.7h26.9c7.8,0,9.7-1.6,10.7-9.2c0.8-7.1,6.6-12.7,13.7-13.4c6.9-0.8,8.8-3,8.8-10.1
	c0-83.8,0-167.6,0-251.4c0-7.5-1.7-9.4-9.1-10.3c-7.1-0.8-12.8-6.5-13.5-13.6c-0.9-7.1-2.9-8.9-10-8.9c-53.8,0-107.6,0-161.3,0
	c-7.1,0-9.1,1.9-10,8.9c-0.9,7.5-6.4,12.8-14,13.7c-6.4,0.7-8.5,3-8.6,9.4c0,4.2,0,8.4,0,13h-15.1c0-8.7,0-17.3,0-25.8
	c0-5.7,0-11.3,0-17c0-11.2,6-17.2,17.1-17.2c47.5,0,95,0,142.5,0c26.6,0,53.1,0,79.7,0c11.5,0,17.3,5.9,17.4,17.5
	c0,104.1,0,208.2,0,312.3c0,11.6-5.8,17.5-17.4,17.5c-18.9,0-37.7,0-56.6,0C359.7,396.3,359.2,396.2,358.8,396z"/>
<path class="st0" d="M313.3,419.9c-11.3,3.5-18.3,10.9-21.8,21.7h-4.4c-48,0-95.9,0-143.9,0c-3,0-4.6-0.5-5.8-3.7
	c-2.7-7.9-9-14-16.9-16.7c-3.5-1.2-3.5-3.3-3.5-6c0-59.9,0-119.8,0-179.7c0-18.4,0.1-36.8-0.1-55.2c0-2.7,0.7-4.1,3.4-5.1
	c8.4-3.1,14-9.2,17.5-17.5c0.6-1.3,2.5-2.8,3.8-2.9c49.7-0.1,99.4-0.1,149.1,0c0.3,0,0.5,0.1,0.8,0.2c3.4,10.1,9.8,17.5,20.3,21
	c0.6,0.2,1.2,1.3,1.4,2.1c0.1,0.9,0.2,1.9,0.1,2.8c0,78.1,0,156.3,0,234.4L313.3,419.9z M195.9,336.2c4,20.8,7.9,40.7,11.8,60.5
	c0.8,4.2,3.1,7,7.5,7s6.8-2.6,7.7-6.9c0.9-4.8,1.9-9.6,2.8-14.3c2.9-15.2,5.9-30.4,9-46.2c1.8,0.9,3.2,1.6,4.5,2.3
	c10.4,5.9,20.7,11.9,31,17.9c3.7,2.2,7.4,3.1,10.8-0.2s2.6-7,0.4-10.7c-6.3-10.9-12.6-21.8-18.8-32.7c-0.7-1.3-1.4-2.6-2.1-4.1
	c1.6-0.6,2.8-1,4-1.4c9.4-3.1,18.8-6.2,28.1-9.4c3.4-1.2,5.7-3.4,5.8-7.2c0.1-4-2.2-6.4-5.8-7.6c-2.1-0.7-4.2-1.4-6.3-2.1l-26-8.7
	c7.3-12.6,14.2-24.8,21.2-36.8c2.2-3.8,2.9-7.4-0.5-10.7c-3.2-3.1-6.7-2.5-10.4-0.4c-10.5,6.2-21,12.1-31.5,18.2
	c-1.3,0.8-2.7,1.4-4.3,2.3c-0.3-1.3-0.5-2.1-0.7-2.8c-3.7-19.1-7.5-38.2-11.2-57.3c-1-4.9-3.8-7.5-7.8-7.3c-4.4,0.3-6.7,2.9-7.4,7.1
	c-1.8,9.7-3.7,19.4-5.6,29.1c-2,10.2-4,20.5-6.1,31.3c-2.8-1.6-5-2.8-7.1-4c-10-5.7-19.9-11.4-29.9-17.1c-3.4-1.9-6.7-1.7-9.5,1.2
	c-2.6,2.7-2.8,5.9-1,9.1c1.1,2.1,2.4,4.1,3.5,6.1l18.4,32.1c-10.7,3.6-20.9,7.1-31.2,10.5c-4,1.3-6.9,3.3-6.9,7.8s3,6.5,6.9,7.7
	c10.3,3.3,20.5,6.9,31,10.4c-0.6,1.3-1.1,2.3-1.6,3.2c-6.6,11.4-13.1,22.9-19.7,34.3c-2,3.5-2.3,6.9,0.6,9.9s6.4,3,9.9,0.9
	c4.2-2.5,8.4-4.8,12.7-7.3L195.9,336.2z M260.3,177.7h-14.6v14.5h14.6V177.7z M147.1,185.3h-14.5v14.5H147L147.1,185.3z
	 M184.8,200.3h-14.6v14.5h14.6L184.8,200.3z M283.4,200.3v14.6h14.5v-14.6L283.4,200.3z M147,267.8v-14.6h-14.5v14.6H147z
	 M297.9,267.9v-14.6h-14.4V268L297.9,267.9z M132.5,373.8v14.7h14.4v-14.7H132.5z M305.6,374H291v14.5h14.6L305.6,374z M192.4,396.6
	h-14.6v14.5h14.6V396.6z M260.3,411.8h-14.7v14.5h14.7L260.3,411.8z"/>
<path class="st0" d="M176.4,328.7c3.6-6.2,7.2-12.5,10.7-18.7s2-10.7-5-13.1c-5.8-1.8-11.4-4.1-16.8-6.8c5.4-1.8,10.8-3.6,16.2-5.4
	c7.7-2.6,9.3-6.9,5.3-14c-3.3-5.9-6.7-11.7-10-17.6c-0.1-0.2,0.1-0.5,0.2-1.4l17.9,10.3c8,4.6,12.6,2.5,14.4-6.6s3.5-18.4,6.4-27.6
	c1.1,5.4,2.2,10.8,3.3,16.2c0.9,4.6,1.7,9.3,2.8,13.9c1.4,6.1,6.3,8.3,11.9,5.3c6.6-3.6,13.1-7.4,20.5-10.6
	c-1.2,2.2-2.5,4.4-3.7,6.5c-2.4,4.2-4.9,8.4-7.3,12.7c-3.3,5.9-1.7,10.3,4.6,12.6c5.8,2,11.6,3.9,18.8,6.4l-15.5,5.3
	c-1.8,0.5-3.6,1.2-5.3,1.9c-4.4,2.2-5.6,6.5-3,11.2c3.6,6.6,7.5,13.1,10.7,20.4c-4-2.2-7.9-4.4-11.9-6.7c-2.6-1.5-5.1-3-7.8-4.5
	c-5.8-3.1-10.7-1-12.1,5.5c-2,9.2-3.7,18.5-5.5,27.7c-0.2,0.9-0.7,1.6-1.5,2c-1.7-8.5-3.3-17-5-25.5c-0.2-0.9-0.3-1.9-0.5-2.8
	c-1.8-8.2-6.4-10.3-13.6-6.2c-6.1,3.5-12.2,7-18.3,10.5L176.4,328.7z"/>
</svg>
