<svg id="圖層_1" data-name="圖層 1" xmlns="http://www.w3.org/2000/svg" viewBox="0 0 521 521"><defs><style>.cls-1{fill:#fff;}</style></defs><title>nav-card</title><path class="cls-1" d="M368.85,405.66V391.15h36.38c2.42,0,4.84.07,7.26,0a14.57,14.57,0,0,0,14.17-14.27c.05-1.21,0-2.42,0-3.63q0-149,0-298c0-12.69-5.21-17.93-17.81-17.93H197.51c-12.28,0-17.59,5.34-17.59,17.7,0,8.13,0,16.27,0,24.67H165.82a19.13,19.13,0,0,1-.39-2.79c0-8.47-.13-16.93,0-25.4a28.75,28.75,0,0,1,28.62-28.64q109.3-.16,218.61,0a28.63,28.63,0,0,1,28.45,28.33c.22,12.39.06,24.79.06,37.19,0,77-.64,153.91.2,230.85.71,65.5-1.43,68.06-66.87,66.45C372.73,405.63,370.94,405.66,368.85,405.66Z"/><path class="cls-1" d="M368.81,376.35V362.24h7.81c3.42-10.6,10.11-17.67,21-21,0-1.66,0-3.27,0-4.88q0-112.25.07-224.5c0-3.28-.62-4.95-4-6.23-7.72-2.9-13-8.66-15.87-16.42-.83-2.28-1.9-2.94-4.21-2.94q-70.3.09-140.6,0c-2.3,0-3.39.64-4.23,2.91A28,28,0,0,1,213,105.7l-5.6-13c6.24-3.3,8.45-8.79,9.35-15.46.27-2,3.74-3.73,6-5.22.84-.57,2.36-.15,3.57-.15H380.07c7.82,0,9.22,1.25,10.43,9.18a14.8,14.8,0,0,0,13.07,12.54c6.79.83,8.59,2.81,8.59,9.6q0,121.1,0,242.19c0,6.77-1.82,8.75-8.62,9.59-7.23.89-12.29,6.07-13.12,13.44-.69,6.15-2.91,8.21-9,8.27-3.63,0-7.26,0-10.88,0A14.83,14.83,0,0,1,368.81,376.35Z"/><path class="cls-1" d="M316.69,166.12c-7.44-.86-12.55-6.1-13.37-13.7-.63-5.79-3-8-8.77-8q-78.23,0-156.47,0c-6.12,0-8.3,2.07-9,8.25a14.73,14.73,0,0,1-13.14,13.45c-6.81.85-8.59,2.79-8.59,9.6q0,121.09,0,242.18c0,6.79,1.81,8.78,8.59,9.6a14.77,14.77,0,0,1,13.11,13c.89,6.93,2.79,8.72,9.48,8.72q77.78,0,155.56,0c6.39,0,8.48-2,9.25-8.49a14.8,14.8,0,0,1,12.9-13.21c7.28-1,8.83-2.75,8.83-10.3q0-60.09,0-120.18,0-60.77,0-121.54C325.06,169,323.1,166.87,316.69,166.12Zm-9.89,249.16c-8.88,3.36-14.3,10.28-17.18,19.27H142.82c-3.39-10.27-10-17.44-21-20.73v-4.88q0-112.24-.08-224.49c0-3.32.74-5,4.06-6.24,7.73-2.94,13-8.71,15.84-16.46.84-2.3,1.95-2.9,4.24-2.9q70.29.09,140.59,0c2.28,0,3.39.61,4.23,2.91a27.19,27.19,0,0,0,16.68,16.81c2.78,1,3.2,2.44,3.18,4.94-.08,14.81,0,29.63,0,44.44q0,90.7.05,181.4C310.61,412.41,310.1,414,306.81,415.28Z"/><path class="cls-1" d="M259.56,181h-14v13.94h14Z"/><path class="cls-1" d="M150.65,188.22H136.7v14h13.95Z"/><path class="cls-1" d="M186.88,202.79h-14v13.93h14Z"/><path class="cls-1" d="M295.76,202.61H281.89v14.11h13.87Z"/><path class="cls-1" d="M150.68,253.51h-14V267.6h14Z"/><path class="cls-1" d="M295.7,253.48h-13.9v14h13.9Z"/><path class="cls-1" d="M136.66,383.57h13.88V369.46H136.66Z"/><path class="cls-1" d="M288.95,383.53h14.11V369.66H288.95Z"/><path class="cls-1" d="M180.14,405.41h14V391.48h-14Z"/><path class="cls-1" d="M245.56,419.82h14.11V405.94H245.56Z"/><path class="cls-1" d="M277.34,338.38l-18-31.23c2.19-.79,4-1.49,5.85-2.1,8.45-2.82,16.91-5.58,25.34-8.44,3.3-1.12,5.39-3.41,5.4-7s-2.08-5.86-5.35-7.08c-1.41-.53-2.87-.94-4.3-1.42l-26.85-9c.85-1.62,1.5-3,2.24-4.24,5.79-10.09,11.53-20.2,17.42-30.23,2.21-3.76,3.85-7.46.27-11.13s-7.3-2.22-11.1,0c-9.76,5.75-19.61,11.34-29.44,17-1.22.7-2.53,1.26-4.09,2C231,225.9,227.22,206.95,223.6,188c-.77-4-2.69-6.74-6.78-7.16-4.1.42-6,3.12-6.78,7.16-3.62,19-7.36,37.93-11.18,57.54-1.56-.77-2.86-1.33-4.09-2-9.83-5.63-19.68-11.22-29.44-17-3.8-2.24-7.52-3.69-11.1,0s-1.94,7.37.27,11.13c5.89,10,11.63,20.14,17.42,30.23.74,1.29,1.39,2.62,2.24,4.24l-26.85,9c-1.43.48-2.89.89-4.3,1.42-3.27,1.22-5.36,3.45-5.35,7.08s2.1,5.92,5.4,7c8.43,2.86,16.9,5.62,25.34,8.44,1.84.62,3.66,1.31,5.85,2.1l-18,31.23c-.9,1.57-1.77,3.16-2.71,4.71-2,3.35-2.17,6.66.68,9.54s6.13,2.77,9.53.8q15.29-8.86,30.62-17.64c1.27-.73,2.59-1.36,4.42-2.31l6.8,35c1.5,7.71,3,15.41,4.49,23.12.74,3.86,2.84,6.4,6.69,6.65,3.85-.25,5.95-2.79,6.69-6.65,1.48-7.71,3-15.41,4.49-23.12l6.8-35c1.83,1,3.16,1.59,4.42,2.31q15.32,8.8,30.62,17.64c3.4,2,6.69,2.08,9.53-.8s2.71-6.19.68-9.54C279.11,341.54,278.24,339.95,277.34,338.38Zm-43.26-22.25c-5.55-3-10.31-1-11.64,5.18-1.63,7.52-3,15.11-4.46,22.66-.35,1.77-.76,3.52-1.16,5.28-.4-1.76-.81-3.51-1.16-5.28-1.49-7.55-2.83-15.14-4.46-22.66-1.33-6.14-6.1-8.23-11.64-5.18-6.3,3.46-12.49,7.12-19.48,10,3.34-5.79,6.69-11.58,10-17.39,3.94-6.91,2.44-11-5-13.5a111.32,111.32,0,0,1-15.74-6.23c5.2-1.73,10.41-3.43,15.6-5.19,7.5-2.54,9.07-6.6,5.21-13.43q-4.89-8.67-9.77-17.35c0-.07.09-.24.36-.87,5.86,3.36,11.66,6.71,17.49,10,7.25,4.1,11.74,2.11,13.39-6,1.58-7.79,3-15.61,5.2-23.49,2.16,7.88,3.63,15.7,5.2,23.49,1.65,8.15,6.14,10.15,13.39,6,5.83-3.3,11.63-6.65,17.49-10,.26.62.4.79.36.87q-4.87,8.68-9.77,17.35c-3.85,6.83-2.29,10.89,5.21,13.43,5.19,1.76,10.4,3.46,15.6,5.19a111.32,111.32,0,0,1-15.74,6.23c-7.43,2.53-8.94,6.6-5,13.5,3.31,5.81,6.67,11.59,10,17.39C246.57,323.24,240.38,319.59,234.08,316.12Z"/><path class="cls-1" d="M322.16,115.36H111.47c-20,0-31.94,11.83-31.94,31.77q0,149.67,0,299.34c0,19.89,12,31.77,32,31.77H322.15c20,0,31.95-11.87,32-31.77q0-149.67,0-299.34C354.1,127.19,342.2,115.37,322.16,115.36ZM339.59,446c0,12.4-5.27,17.7-17.6,17.7H111.64c-12.34,0-17.6-5.3-17.6-17.7q0-149.21,0-298.43c0-12.39,5.28-17.72,17.57-17.72H322c12.29,0,17.57,5.32,17.57,17.72Q339.59,296.81,339.59,446Z"/></svg>