<?xml version="1.0" encoding="utf-8"?>
<!-- Generator: Adobe Illustrator 21.0.0, SVG Export Plug-In . SVG Version: 6.00 Build 0)  -->
<svg version="1.1" id="圖層_1" xmlns="http://www.w3.org/2000/svg" xmlns:xlink="http://www.w3.org/1999/xlink" x="0px" y="0px"
	 viewBox="0 0 521 521" style="enable-background:new 0 0 521 521;" xml:space="preserve">
<style type="text/css">
	.st0{fill:#FFFFFF;}
</style>
<title>nav-subsc</title>
<path class="st0" d="M101.9,470.9c-3.4-2.5-4.3-5.9-4.1-10c0.3-5.7-0.1-11.5,0.1-17.3c0.2-14.4,11.8-26,26.2-26.3c1.9-0.1,3.8,0,6,0
	c0.8-7,1.1-13.8,2.3-20.5c8-46.8,29-86.3,66.3-116.4c13.9-11.2,14.1-28.5,0.3-39.6c-36.1-29-57-66.9-65.8-111.9
	c-1.6-8.1-2.2-16.5-3.3-25.4c-1.9,0-4.1,0.1-6.2,0c-13.9-0.5-25.1-11.5-25.7-25.4c-0.4-7-0.4-14,0-20.9c0.2-2.5,2.5-4.8,3.8-7.2
	h317.3c3.4,2.5,4.3,5.9,4.1,10c-0.3,5.7,0.1,11.5-0.1,17.2c-0.2,14.4-11.8,26-26.2,26.3c-1.9,0.1-3.8,0-6,0
	c-0.7,6.8-1.1,13.3-2.2,19.7c-7.8,47-28.8,86.6-66,117c-14.5,11.9-14.5,28.5,0,40.3c35.6,28.9,56.4,66.7,65.1,111.3
	c1.6,8.1,2.1,16.5,3.3,25.3c1.8,0,3.8-0.1,5.8,0c14.3,0.5,25.5,11.2,26.1,25.5c0.4,7,0.4,14-0.1,20.9c-0.2,2.5-2.5,4.8-3.8,7.1
	L101.9,470.9z M377.3,104.1H143.9c-0.1,1-0.2,1.7-0.1,2.3c0,1.8,0,3.6,0.2,5.3c5.4,48.4,25.8,88.9,64.1,119.7
	c18.9,15.2,19.1,43,0.1,58.1c-33.2,26.4-52.8,60.9-61.6,101.8c-1.8,8.3-2.3,16.9-3.5,26h5.5c13.6,0,27.1-0.1,40.7,0.1
	c3.4,0,5.4-0.9,7.2-3.9c10.5-16.9,23.8-31.1,41.3-40.8c4.2-2.3,8.6-4.3,12.9-6.3c2.2-0.8,3.5-3,3.3-5.4c-0.2-8.6-0.1-17.3-0.1-25.9
	c0-4.8,2.6-7.8,6.5-7.8s6.5,3,6.6,7.8c0,7.9,0.3,15.9-0.1,23.8c-0.3,4.6,1.4,6.9,5.5,8.6c23,9.5,39.8,26.1,52.7,47
	c1,1.9,3.1,3.1,5.3,2.9c14.4-0.1,28.8,0,43.1-0.1c1.2,0,2.3-0.2,3.9-0.3c-0.5-5.3-0.6-10.2-1.3-15.1c-7.1-45.5-27.3-83.6-63.7-112.6
	c-15.9-12.6-18.5-35.6-6-51.5c1.8-2.2,3.8-4.3,6.1-6c28.4-22.3,46.9-51.3,57.6-85.4C374.6,132.6,377,118.4,377.3,104.1z M410,63.6
	H111c0,4.8-0.2,9.4,0,13.9c0.4,7.4,5.8,12.7,13.3,13.1c1.2,0.1,2.5,0.1,3.7,0.1h265c1.2,0,2.5,0,3.7-0.1c7.4-0.4,12.9-5.6,13.2-13.1
	C410.1,73,410,68.4,410,63.6z M111,457.4h299c0-4.9,0.2-9.4,0-13.9c-0.4-7.4-5.9-12.7-13.3-13c-1.2-0.1-2.5,0-3.7,0H128
	c-1.2,0-2.5,0-3.7,0c-7.4,0.4-12.8,5.7-13.2,13.1C110.8,448,111,452.6,111,457.4z M210.3,417h100.4c-0.2-0.6-0.4-1.2-0.7-1.7
	c-9.9-14.3-22-26.1-37.9-33.6c-3.8-1.8-7.6-5.1-11.4-5.1c-4,0-7.9,3.3-11.8,5.1c-15.9,7.5-28,19.3-37.9,33.6
	C210.7,415.9,210.5,416.4,210.3,417z"/>
<path class="st0" d="M253.9,231.8c2.5-8.2-2.7-10.9-9-13.7c-23.1-10.2-39.2-27.9-51.5-49.4c-1.8-3.1-0.7-7.2,2.5-8.9
	c1.4-0.8,3-1,4.5-0.7c15.5,2.8,29.9-0.4,43.9-6.7c10.4-4.6,20.6-9.6,31.1-13.7c20.1-7.8,38.7-3.7,55.7,8.8c3.7,2.7,4.5,5.4,2.5,9.6
	c-13.1,27.5-31.5,50-60.2,62.3c-4.6,2-7.4,4.4-6.5,10c0.5,3.2,0.2,6.6,0.1,9.8c-0.2,4.2-2.9,6.8-6.7,6.7c-3.7-0.1-6.2-2.6-6.4-6.7
	C253.8,236.7,253.9,234.3,253.9,231.8z M211.9,173.2c1.1,1.5,1.6,2.3,2.1,3c10.1,13.4,23.3,24.1,38.4,31.2
	c6.1,2.9,10.3,2.6,16.3-0.1c20.8-9.5,35.6-25,47-44.3c1.4-2.4,2.7-4.9,4-7.3c-10-6.7-20.1-9.7-31.1-6.9c-9.8,2.5-19.4,6.6-28.6,10.8
	C244.9,166.6,229.7,173.1,211.9,173.2L211.9,173.2z"/>
<path class="st0" d="M267,277c0.1,1.6,0.1,3.3,0,4.9c-0.3,3.4-3.3,6-6.7,5.8c-3.7-0.2-5.9-2.3-6.2-5.9c-0.3-3.3-0.3-6.5,0-9.8
	c0.1-3.4,2.9-6.2,6.3-6.3c3.6,0,6.5,2.8,6.7,6.4C267.2,273.7,267.1,275.4,267,277L267,277z"/>
</svg>
