<svg id="圖層_1" data-name="圖層 1" xmlns="http://www.w3.org/2000/svg" viewBox="0 0 521 521"><defs><style>.cls-1{fill:#fff;}</style></defs><title>nav-course</title><path class="cls-1" d="M282.82,159.71h73.52a33.07,33.07,0,0,1,4.12.1c4.65.59,7.61,3.89,7.55,8.28-.06,4.22-2.94,7.38-7.4,8a30.31,30.31,0,0,1-4.12.13H209c-7.89,0-11.86-2.84-11.76-8.39.1-5.39,4-8.13,11.61-8.13Z"/><path class="cls-1" d="M282.66,222.5q-37.59,0-75.17,0c-6.73,0-10.75-3.65-10.09-9.09.49-4.06,2.92-6.43,6.85-7.19a23.94,23.94,0,0,1,4.52-.22q73.93,0,147.86,0a23.69,23.69,0,0,1,4.92.33,8.09,8.09,0,0,1,0,15.85,24.19,24.19,0,0,1-4.92.32Q319.63,222.51,282.66,222.5Z"/><path class="cls-1" d="M282.8,252.24h73.52c1.24,0,2.49-.06,3.71.06,4.91.48,8,3.77,8,8.32-.05,4.37-3.1,7.55-7.8,8.07a34.29,34.29,0,0,1-3.71.07H209c-7.85,0-11.87-2.86-11.77-8.38s4-8.14,11.6-8.14Z"/><path class="cls-1" d="M282.39,315q-37.59,0-75.17,0c-6.24,0-10.15-3.45-9.94-8.55a8.12,8.12,0,0,1,6.84-7.7,27.28,27.28,0,0,1,4.93-.25h147c.83,0,1.65,0,2.48,0,5.87.15,9.38,3.19,9.44,8.14.06,5.13-3.52,8.35-9.63,8.36Q320.39,315.07,282.39,315Z"/><path class="cls-1" d="M300.12,130H244a28.61,28.61,0,0,1-4.12-.14,8.15,8.15,0,0,1,0-16.22,27.85,27.85,0,0,1,4.12-.15q56.33,0,112.66,0a24,24,0,0,1,4.92.32,8.09,8.09,0,0,1,0,15.84,23.66,23.66,0,0,1-4.92.33Q328.39,130,300.12,130Z"/><path class="cls-1" d="M467.33,396.08c-7.37-16.86-20.28-27.31-38.1-31.77a16.08,16.08,0,0,1-1.85-.75v-4.79q0-85.68.09-171.35c0-5.22-1.6-8.86-6-11.76-5.93-4-11.58-8.33-17.91-12.94,5-3.15,9.63-6,14.21-8.89,7.45-4.71,7.7-10.7.67-16.07-3.28-2.51-6.46-5.17-9.9-7.43-2.79-1.83-4-4-2.86-7.78,3.62,0,7.43,0,11.24,0,7.33-.05,10.45-3,10.4-10.22-.07-10.28,1.08-20.7-2.76-30.63-6.84-17.71-19.5-28.52-38.28-32a11.75,11.75,0,0,1-1.9-.7H90.31c-7.94,2.28-15.49,5.25-21.68,11C57.82,70.11,52.12,82.75,49.8,97.12c-.17,1-.53,2.07-.8,3.1v14.87c2,6.24,3.37,12.74,6.06,18.65,5,11.05,13,19.42,25.07,22.85a42.22,42.22,0,0,0,11,1.4c14.43.15,28.85.06,43.85.06v5c0,41,.06,82-.08,123,0,5.27,1.73,8.88,6.29,11.51s9,5.74,13.77,8.85c-5.28,4.73-10.23,9.29-15.33,13.66a12.77,12.77,0,0,0-4.69,10.46c.1,24.21-.09,48.43.12,72.64.15,17.2,3.48,33.64,14,47.86a49.58,49.58,0,0,0,32.84,20.2,8.61,8.61,0,0,1,1.82.76H424.08c3.66-1,7.43-1.71,11-3,20.16-7.5,32.3-21.83,36.21-43.05a9.69,9.69,0,0,1,.74-1.84V410.86C470.47,405.92,469.39,400.78,467.33,396.08ZM118.56,141.38c.54-6.81,1.81-13.58,1.45-20.26-.82-15.4-12.49-26.52-27.79-27.41-5.38-.31-9.18,2.6-9.65,7.39s2.65,8.3,8.09,9c7.6,1,11.26,3.94,12.77,10.21,1.9,7.91-.39,15-6.09,18.74-5.27,3.49-12.46,3.14-18.18-1-6.94-5-10.76-12.09-12.38-20.27-3-15.35-.23-29.56,9.62-42,7.83-9.86,18.18-11.87,30-9.11,16.64,3.88,24.1,16.05,26.39,31.26,2.13,14.17,2,28.66,2.95,43.38Zm87.27,308.08c-10,7.89-23.55,8-34.9.17-10.65-7.38-15.59-18.29-17.76-30.55a111.47,111.47,0,0,1-1.64-18.47c-.18-21.75-.12-43.51.07-65.26a9.16,9.16,0,0,1,2.57-5.9c6.06-5.81,12.46-11.25,18.69-16.88,5.6-5.07,5.16-10.75-1.16-14.94-5.39-3.57-10.74-7.23-16.31-10.5-3-1.74-4-3.72-4-7.21q.19-79.72.1-159.44c0-14.56-1.4-28.89-7.7-42.26-2-4.2-4.64-8.07-7.34-12.7h3.82q118.13,0,236.26,0c16.6,0,29,8.78,33,23.93,1.35,5.09,1.24,10.57,1.86,16.55-4.49,0-8.28,0-12.07,0-7.42,0-10.44,3.07-10.54,10.58-.05,4.13.17,8.27-.06,12.39-.26,4.86,1.4,8.53,5.54,11.18,2.06,1.32,3.92,2.95,6.39,4.83l-14.17,8.93c-7.68,4.85-8,11-.7,16.26,7.55,5.53,15.19,10.94,22.64,16.59a6.24,6.24,0,0,1,2.34,4.24q.17,85.09.08,170.17a16.28,16.28,0,0,1-.25,1.76h-4.73q-103.67,0-207.35,0c-14.35,0-26.2,8-30.5,20.4-4.8,13.84-1,29.13,9.3,37.64,4.86,4,10.56,5.77,16.73,6.24,5.53.43,9.54-2.64,10-7.54.41-4.58-3-8.17-8.38-8.85-8.84-1.11-12.82-5.63-13.15-14.9-.3-8.33,4.52-15.07,12.21-16.19,8.09-1.18,14,3,18.68,9.08C226,405.16,222,436.73,205.83,449.46Zm210.65,6c-15.69.18-31.39,0-47.08,0H223.27c9.12-12.08,13.24-25,14.11-39.66h0c0-2.77-.16-6-.43-9.82a59.86,59.86,0,0,0-1.18-8.67l-3.34-7.59h0l-4.43-10c.86-.06,2-.22,3.15-.22q92.09,0,184.19,0c17.8,0,32.66,9.92,37.63,24.94C461.62,430.46,444,455.13,416.48,455.44Z"/></svg>