<svg xmlns="http://www.w3.org/2000/svg" viewBox="0 0 187.01 154.64"><defs><style>.cls-1,.cls-3,.cls-4{fill:none;stroke-linecap:round;stroke-linejoin:round;}.cls-1{stroke:#d4cec7;}.cls-1,.cls-3{stroke-width:0.75px;}.cls-2{fill:#f96466;}.cls-3,.cls-4{stroke:#f96466;}</style></defs><title>star1</title><g id="圖層_2" data-name="圖層 2"><g id="Objects"><line class="cls-1" x1="164.09" y1="44.57" x2="186.63" y2="39.93"/><line class="cls-1" x1="164.84" y1="58.08" x2="173.21" y2="57.86"/><line class="cls-1" x1="162.05" y1="71.6" x2="175.36" y2="73.54"/><line class="cls-1" x1="153.63" y1="22.98" x2="159.02" y2="19.22"/><line class="cls-1" x1="145.7" y1="11.75" x2="159.09" y2="0.38"/><line class="cls-1" x1="143.58" y1="107.46" x2="149.92" y2="112.61"/><line class="cls-1" x1="108.37" y1="126.57" x2="113.09" y2="154.26"/><line class="cls-1" x1="95.06" y1="127.86" x2="95.06" y2="140.42"/><line class="cls-1" x1="56.63" y1="116.26" x2="51.47" y2="123.78"/><line class="cls-1" x1="30.97" y1="84.7" x2="20.13" y2="88.78"/><line class="cls-1" x1="26.78" y1="71.6" x2="0.38" y2="77.19"/><path class="cls-2" d="M52.26,89.92c2.05.47,3,.89,5,1.36.58,2.38,1.28,7.25,1.86,9.63.34-2.43.8-7,1.37-9.42,1.94-.53,2.7-1,4.61-1.67.15,0,.88-.1.73-.14a49.54,49.54,0,0,0-5.34-1.22c-.55-2.42-.93-7-1.66-9.36-.52,2.4-1.17,7-2,9.28Z"/><path class="cls-2" d="M67.61,102.09c1.34.31,1.95.58,3.28.89.38,1.55.83,4.72,1.21,6.27.22-1.58.52-4.57.89-6.13,1.26-.35,1.76-.68,3-1.08.1,0,.57-.06.48-.09a32.18,32.18,0,0,0-3.47-.79c-.36-1.57-.61-4.54-1.08-6.09-.34,1.56-.76,4.52-1.27,6Z"/><path class="cls-2" d="M66.3,79.63c.76.17,1.1.33,1.85.5.21.87.47,2.67.68,3.54.12-.89.29-2.58.5-3.46.71-.2,1-.38,1.69-.61.05,0,.32,0,.27-.05a18.18,18.18,0,0,0-2-.45c-.2-.89-.34-2.57-.61-3.44-.19.88-.43,2.56-.72,3.41Z"/><path class="cls-2" d="M89.91,18.43c.76.17,1.1.33,1.85.5.21.88.47,2.67.68,3.54.12-.89.29-2.58.5-3.46.71-.2,1-.38,1.69-.61.05,0,.32,0,.27-.05a18.18,18.18,0,0,0-2-.45c-.2-.89-.34-2.57-.61-3.44-.19.88-.43,2.56-.72,3.41Z"/><path class="cls-2" d="M125.39,26.34c1.57.36,2.29.69,3.87,1,.45,1.82,1,5.56,1.42,7.39.26-1.87.61-5.39,1.05-7.22,1.49-.41,2.07-.8,3.53-1.28.11,0,.68-.07.56-.11a38,38,0,0,0-4.09-.93c-.42-1.85-.71-5.36-1.27-7.17-.4,1.84-.9,5.33-1.5,7.12Z"/><path class="cls-3" d="M141.12,40.09q-.05-2.86-.17-5.73"/><path class="cls-3" d="M143.87,35.49l-5.5,3.7"/><path class="cls-3" d="M143.71,39.05q-2.63-1.56-5.23-3.17"/><path class="cls-3" d="M55,48.46q-.05-2.86-.17-5.73"/><path class="cls-3" d="M57.78,43.86l-5.5,3.7"/><path class="cls-3" d="M57.62,47.42Q55,45.86,52.39,44.26"/><path class="cls-3" d="M139.89,85.7q-.05-2.86-.17-5.73"/><path class="cls-3" d="M142.63,81.09l-5.5,3.7"/><path class="cls-3" d="M142.48,84.66q-2.63-1.56-5.23-3.17"/><path class="cls-3" d="M114.24,102.16q-.05-2.86-.17-5.73"/><path class="cls-3" d="M117,97.55l-5.5,3.7"/><path class="cls-3" d="M116.82,101.12q-2.63-1.56-5.23-3.17"/><path class="cls-4" d="M141.12,40.09q-.05-2.86-.17-5.73"/><path class="cls-4" d="M143.87,35.49l-5.5,3.7"/><path class="cls-4" d="M143.71,39.05q-2.63-1.56-5.23-3.17"/><path class="cls-2" d="M47.17,86.32a.63.63,0,0,0,0-1.25.63.63,0,0,0,0,1.25Z"/><path class="cls-2" d="M44.67,50.54a.63.63,0,0,0,0-1.25.63.63,0,0,0,0,1.25Z"/><path class="cls-2" d="M131,86.55a.63.63,0,0,0,0-1.25.63.63,0,0,0,0,1.25Z"/><path class="cls-2" d="M125.28,105.78a.63.63,0,0,0,0-1.25.63.63,0,0,0,0,1.25Z"/><path class="cls-2" d="M85.17,113.14a.63.63,0,0,0,0-1.25.63.63,0,0,0,0,1.25Z"/><path class="cls-2" d="M149.83,48.08a.63.63,0,0,0,0-1.25.63.63,0,0,0,0,1.25Z"/><path class="cls-2" d="M87.22,32.94a.63.63,0,0,0,0-1.25.63.63,0,0,0,0,1.25Z"/><path class="cls-2" d="M85.58,37a.63.63,0,0,0,0-1.25.63.63,0,0,0,0,1.25Z"/><path class="cls-2" d="M77.4,38.67a.63.63,0,0,0,0-1.25.63.63,0,0,0,0,1.25Z"/><path class="cls-2" d="M82.31,17.8a.63.63,0,0,0,0-1.25.63.63,0,0,0,0,1.25Z"/><path class="cls-2" d="M122.41,71.41a.63.63,0,0,0,0-1.25.63.63,0,0,0,0,1.25Z"/><path class="cls-2" d="M89.68,107a.63.63,0,0,0,0-1.25.63.63,0,0,0,0,1.25Z"/><path class="cls-2" d="M119.55,11.83a.38.38,0,0,0,0-.75.38.38,0,0,0,0,.75Z"/><path class="cls-2" d="M116.27,15.1a.38.38,0,0,0,0-.75.38.38,0,0,0,0,.75Z"/><path class="cls-2" d="M121.18,21.65a.38.38,0,0,0,0-.75.38.38,0,0,0,0,.75Z"/><path class="cls-2" d="M99.09,21.24a.38.38,0,0,0,0-.75.38.38,0,0,0,0,.75Z"/><path class="cls-2" d="M109.73,89.16a.38.38,0,0,0,0-.75.38.38,0,0,0,0,.75Z"/><path class="cls-2" d="M126.5,73.2a.38.38,0,0,0,0-.75.38.38,0,0,0,0,.75Z"/><path class="cls-2" d="M108.09,57.25a.38.38,0,0,0,0-.75.38.38,0,0,0,0,.75Z"/><path class="cls-2" d="M145.73,51.11a.38.38,0,0,0,0-.75.38.38,0,0,0,0,.75Z"/><path class="cls-2" d="M149.83,69.11a.38.38,0,0,0,0-.75.38.38,0,0,0,0,.75Z"/><path class="cls-2" d="M150.24,72.79a.38.38,0,0,0,0-.75.38.38,0,0,0,0,.75Z"/><path class="cls-2" d="M153.51,64.61a.38.38,0,0,0,0-.75.38.38,0,0,0,0,.75Z"/><path class="cls-2" d="M134.69,101.44a.38.38,0,0,0,0-.75.38.38,0,0,0,0,.75Z"/><path class="cls-2" d="M130.19,102.26a.38.38,0,0,0,0-.75.38.38,0,0,0,0,.75Z"/><path class="cls-2" d="M129.78,97.75a.38.38,0,0,0,0-.75.38.38,0,0,0,0,.75Z"/><path class="cls-2" d="M95,115.35a.38.38,0,0,0,0-.75.38.38,0,0,0,0,.75Z"/><path class="cls-2" d="M43.85,81a.38.38,0,0,0,0-.75.38.38,0,0,0,0,.75Z"/><path class="cls-2" d="M40.16,58.06a.38.38,0,0,0,0-.75.38.38,0,0,0,0,.75Z"/><path class="cls-2" d="M79.86,45a.38.38,0,0,0,0-.75.38.38,0,0,0,0,.75Z"/><path class="cls-2" d="M68.4,35.15a.38.38,0,0,0,0-.75.38.38,0,0,0,0,.75Z"/><path class="cls-2" d="M97.86,6.92a.38.38,0,0,0,0-.75.38.38,0,0,0,0,.75Z"/><path class="cls-2" d="M123.23,93.25a.38.38,0,0,0,0-.75.38.38,0,0,0,0,.75Z"/><path class="cls-2" d="M109.32,108.39a.38.38,0,0,0,0-.75.38.38,0,0,0,0,.75Z"/></g></g></svg>